<?xml version="1.0" encoding="utf-8"?>
<!-- Generator: Adobe Illustrator 24.3.0, SVG Export Plug-In . SVG Version: 6.00 Build 0)  -->
<svg version="1.1" id="Layer_1" xmlns="http://www.w3.org/2000/svg" xmlns:xlink="http://www.w3.org/1999/xlink" x="0px" y="0px"
	 viewBox="0 0 1099.485 32.176" style="enable-background:new 0 0 1099.485 32.176;" xml:space="preserve">
<style type="text/css">
	.st0{fill:#D3190B;}
</style>
<g>
	<circle class="st0" cx="2.621" cy="9.787" r="1.343"/>
</g>
<g>
	<circle class="st0" cx="8.397" cy="6.365" r="1.343"/>
</g>
<g>
	<circle class="st0" cx="14.174" cy="8.628" r="1.343"/>
</g>
<g>
	<circle class="st0" cx="19.951" cy="12.05" r="1.343"/>
</g>
<g>
	<circle class="st0" cx="25.728" cy="15.472" r="1.343"/>
</g>
<g>
	<circle class="st0" cx="31.505" cy="18.894" r="1.343"/>
</g>
<g>
	<circle class="st0" cx="37.281" cy="22.317" r="1.343"/>
</g>
<g>
	<circle class="st0" cx="43.058" cy="25.739" r="1.343"/>
</g>
<g>
	<circle class="st0" cx="48.835" cy="22.409" r="1.343"/>
</g>
<g>
	<circle class="st0" cx="54.611" cy="18.986" r="1.343"/>
</g>
<g>
	<circle class="st0" cx="60.388" cy="15.564" r="1.343"/>
</g>
<g>
	<circle class="st0" cx="66.165" cy="12.141" r="1.343"/>
</g>
<g>
	<circle class="st0" cx="71.941" cy="8.719" r="1.343"/>
</g>
<g>
	<circle class="st0" cx="77.718" cy="6.274" r="1.343"/>
</g>
<g>
	<circle class="st0" cx="83.495" cy="9.697" r="1.343"/>
</g>
<g>
	<circle class="st0" cx="89.271" cy="13.119" r="1.343"/>
</g>
<g>
	<circle class="st0" cx="95.048" cy="16.542" r="1.343"/>
</g>
<g>
	<circle class="st0" cx="100.825" cy="19.964" r="1.343"/>
</g>
<g>
	<circle class="st0" cx="106.601" cy="23.386" r="1.343"/>
</g>
<g>
	<circle class="st0" cx="112.378" cy="24.761" r="1.343"/>
</g>
<g>
	<circle class="st0" cx="118.154" cy="21.338" r="1.343"/>
</g>
<g>
	<circle class="st0" cx="123.931" cy="17.916" r="1.343"/>
</g>
<g>
	<circle class="st0" cx="129.708" cy="14.493" r="1.343"/>
</g>
<g>
	<circle class="st0" cx="135.484" cy="11.071" r="1.343"/>
</g>
<g>
	<circle class="st0" cx="141.261" cy="7.648" r="1.343"/>
</g>
<g>
	<circle class="st0" cx="147.037" cy="7.345" r="1.343"/>
</g>
<g>
	<circle class="st0" cx="152.814" cy="10.767" r="1.343"/>
</g>
<g>
	<circle class="st0" cx="158.59" cy="14.19" r="1.343"/>
</g>
<g>
	<circle class="st0" cx="164.367" cy="17.613" r="1.343"/>
</g>
<g>
	<circle class="st0" cx="170.144" cy="21.035" r="1.343"/>
</g>
<g>
	<circle class="st0" cx="175.92" cy="24.458" r="1.343"/>
</g>
<g>
	<circle class="st0" cx="181.697" cy="23.689" r="1.343"/>
</g>
<g>
	<circle class="st0" cx="187.473" cy="20.266" r="1.343"/>
</g>
<g>
	<circle class="st0" cx="193.249" cy="16.843" r="1.343"/>
</g>
<g>
	<circle class="st0" cx="199.026" cy="13.421" r="1.343"/>
</g>
<g>
	<circle class="st0" cx="204.802" cy="9.998" r="1.343"/>
</g>
<g>
	<circle class="st0" cx="210.579" cy="6.575" r="1.343"/>
</g>
<g>
	<circle class="st0" cx="216.355" cy="8.418" r="1.343"/>
</g>
<g>
	<circle class="st0" cx="222.131" cy="11.841" r="1.343"/>
</g>
<g>
	<circle class="st0" cx="227.908" cy="15.264" r="1.343"/>
</g>
<g>
	<circle class="st0" cx="233.684" cy="18.687" r="1.343"/>
</g>
<g>
	<circle class="st0" cx="239.46" cy="22.11" r="1.343"/>
</g>
<g>
	<circle class="st0" cx="245.237" cy="25.534" r="1.343"/>
</g>
<g>
	<circle class="st0" cx="251.013" cy="22.614" r="1.343"/>
</g>
<g>
	<circle class="st0" cx="256.79" cy="19.191" r="1.343"/>
</g>
<g>
	<circle class="st0" cx="262.566" cy="15.769" r="1.343"/>
</g>
<g>
	<circle class="st0" cx="268.343" cy="12.346" r="1.343"/>
</g>
<g>
	<circle class="st0" cx="274.119" cy="8.923" r="1.343"/>
</g>
<g>
	<circle class="st0" cx="279.896" cy="6.069" r="1.343"/>
</g>
<g>
	<circle class="st0" cx="285.673" cy="9.492" r="1.343"/>
</g>
<g>
	<circle class="st0" cx="291.449" cy="12.915" r="1.343"/>
</g>
<g>
	<circle class="st0" cx="297.226" cy="16.337" r="1.343"/>
</g>
<g>
	<circle class="st0" cx="303.002" cy="19.76" r="1.343"/>
</g>
<g>
	<circle class="st0" cx="308.779" cy="23.183" r="1.343"/>
</g>
<g>
	<circle class="st0" cx="314.555" cy="24.965" r="1.343"/>
</g>
<g>
	<circle class="st0" cx="320.332" cy="21.542" r="1.343"/>
</g>
<g>
	<circle class="st0" cx="326.108" cy="18.119" r="1.343"/>
</g>
<g>
	<circle class="st0" cx="331.885" cy="14.696" r="1.343"/>
</g>
<g>
	<circle class="st0" cx="337.661" cy="11.273" r="1.343"/>
</g>
<g>
	<circle class="st0" cx="343.438" cy="7.851" r="1.343"/>
</g>
<g>
	<circle class="st0" cx="349.214" cy="7.142" r="1.343"/>
</g>
<g>
	<circle class="st0" cx="354.991" cy="10.565" r="1.343"/>
</g>
<g>
	<circle class="st0" cx="360.767" cy="13.988" r="1.343"/>
</g>
<g>
	<circle class="st0" cx="366.543" cy="17.411" r="1.343"/>
</g>
<g>
	<circle class="st0" cx="372.32" cy="20.834" r="1.343"/>
</g>
<g>
	<circle class="st0" cx="378.096" cy="24.257" r="1.343"/>
</g>
<g>
	<circle class="st0" cx="383.873" cy="23.891" r="1.343"/>
</g>
<g>
	<circle class="st0" cx="389.649" cy="20.468" r="1.343"/>
</g>
<g>
	<circle class="st0" cx="395.426" cy="17.045" r="1.343"/>
</g>
<g>
	<circle class="st0" cx="401.202" cy="13.622" r="1.343"/>
</g>
<g>
	<circle class="st0" cx="406.978" cy="10.199" r="1.343"/>
</g>
<g>
	<circle class="st0" cx="412.755" cy="6.776" r="1.343"/>
</g>
<g>
	<circle class="st0" cx="418.531" cy="8.217" r="1.343"/>
</g>
<g>
	<circle class="st0" cx="424.308" cy="11.64" r="1.343"/>
</g>
<g>
	<circle class="st0" cx="430.084" cy="15.062" r="1.343"/>
</g>
<g>
	<circle class="st0" cx="435.861" cy="18.485" r="1.343"/>
</g>
<g>
	<circle class="st0" cx="441.637" cy="21.908" r="1.343"/>
</g>
<g>
	<circle class="st0" cx="447.413" cy="25.331" r="1.343"/>
</g>
<g>
	<circle class="st0" cx="453.19" cy="22.816" r="1.343"/>
</g>
<g>
	<circle class="st0" cx="458.966" cy="19.393" r="1.343"/>
</g>
<g>
	<circle class="st0" cx="464.743" cy="15.97" r="1.343"/>
</g>
<g>
	<circle class="st0" cx="470.519" cy="12.547" r="1.343"/>
</g>
<g>
	<circle class="st0" cx="476.295" cy="9.124" r="1.343"/>
</g>
<g>
	<circle class="st0" cx="482.072" cy="5.869" r="1.343"/>
</g>
<g>
	<circle class="st0" cx="488.444" cy="8.628" r="1.343"/>
</g>
<g>
	<circle class="st0" cx="494.22" cy="12.05" r="1.343"/>
</g>
<g>
	<circle class="st0" cx="499.997" cy="15.472" r="1.343"/>
</g>
<g>
	<circle class="st0" cx="505.774" cy="18.894" r="1.343"/>
</g>
<g>
	<circle class="st0" cx="511.551" cy="22.317" r="1.343"/>
</g>
<g>
	<circle class="st0" cx="517.328" cy="25.739" r="1.343"/>
</g>
<g>
	<circle class="st0" cx="523.104" cy="22.409" r="1.343"/>
</g>
<g>
	<circle class="st0" cx="528.881" cy="18.986" r="1.343"/>
</g>
<g>
	<circle class="st0" cx="534.658" cy="15.564" r="1.343"/>
</g>
<g>
	<circle class="st0" cx="540.434" cy="12.141" r="1.343"/>
</g>
<g>
	<circle class="st0" cx="546.211" cy="8.719" r="1.343"/>
</g>
<g>
	<circle class="st0" cx="551.987" cy="6.274" r="1.343"/>
</g>
<g>
	<circle class="st0" cx="557.764" cy="9.697" r="1.343"/>
</g>
<g>
	<circle class="st0" cx="563.541" cy="13.119" r="1.343"/>
</g>
<g>
	<circle class="st0" cx="569.317" cy="16.542" r="1.343"/>
</g>
<g>
	<circle class="st0" cx="575.094" cy="19.964" r="1.343"/>
</g>
<g>
	<circle class="st0" cx="580.871" cy="23.386" r="1.343"/>
</g>
<g>
	<circle class="st0" cx="586.647" cy="24.761" r="1.343"/>
</g>
<g>
	<circle class="st0" cx="592.424" cy="21.338" r="1.343"/>
</g>
<g>
	<circle class="st0" cx="598.2" cy="17.916" r="1.343"/>
</g>
<g>
	<circle class="st0" cx="603.977" cy="14.493" r="1.343"/>
</g>
<g>
	<circle class="st0" cx="609.754" cy="11.071" r="1.343"/>
</g>
<g>
	<circle class="st0" cx="615.53" cy="7.648" r="1.343"/>
</g>
<g>
	<circle class="st0" cx="621.307" cy="7.345" r="1.343"/>
</g>
<g>
	<circle class="st0" cx="627.083" cy="10.767" r="1.343"/>
</g>
<g>
	<circle class="st0" cx="632.86" cy="14.19" r="1.343"/>
</g>
<g>
	<circle class="st0" cx="638.636" cy="17.613" r="1.343"/>
</g>
<g>
	<circle class="st0" cx="644.413" cy="21.035" r="1.343"/>
</g>
<g>
	<circle class="st0" cx="650.19" cy="24.458" r="1.343"/>
</g>
<g>
	<circle class="st0" cx="655.966" cy="23.689" r="1.343"/>
</g>
<g>
	<circle class="st0" cx="661.742" cy="20.266" r="1.343"/>
</g>
<g>
	<circle class="st0" cx="667.519" cy="16.843" r="1.343"/>
</g>
<g>
	<circle class="st0" cx="673.295" cy="13.421" r="1.343"/>
</g>
<g>
	<circle class="st0" cx="679.072" cy="9.998" r="1.343"/>
</g>
<g>
	<circle class="st0" cx="684.848" cy="6.575" r="1.343"/>
</g>
<g>
	<circle class="st0" cx="690.624" cy="8.418" r="1.343"/>
</g>
<g>
	<circle class="st0" cx="696.401" cy="11.841" r="1.343"/>
</g>
<g>
	<circle class="st0" cx="702.177" cy="15.264" r="1.343"/>
</g>
<g>
	<circle class="st0" cx="707.953" cy="18.687" r="1.343"/>
</g>
<g>
	<circle class="st0" cx="713.73" cy="22.11" r="1.343"/>
</g>
<g>
	<circle class="st0" cx="719.506" cy="25.534" r="1.343"/>
</g>
<g>
	<circle class="st0" cx="725.283" cy="22.614" r="1.343"/>
</g>
<g>
	<circle class="st0" cx="731.059" cy="19.191" r="1.343"/>
</g>
<g>
	<circle class="st0" cx="736.836" cy="15.769" r="1.343"/>
</g>
<g>
	<circle class="st0" cx="742.612" cy="12.346" r="1.343"/>
</g>
<g>
	<circle class="st0" cx="748.389" cy="8.923" r="1.343"/>
</g>
<g>
	<circle class="st0" cx="754.165" cy="6.069" r="1.343"/>
</g>
<g>
	<circle class="st0" cx="759.942" cy="9.492" r="1.343"/>
</g>
<g>
	<circle class="st0" cx="765.719" cy="12.915" r="1.343"/>
</g>
<g>
	<circle class="st0" cx="771.495" cy="16.337" r="1.343"/>
</g>
<g>
	<circle class="st0" cx="777.272" cy="19.76" r="1.343"/>
</g>
<g>
	<circle class="st0" cx="783.048" cy="23.183" r="1.343"/>
</g>
<g>
	<circle class="st0" cx="788.825" cy="24.965" r="1.343"/>
</g>
<g>
	<circle class="st0" cx="794.601" cy="21.542" r="1.343"/>
</g>
<g>
	<circle class="st0" cx="800.378" cy="18.119" r="1.343"/>
</g>
<g>
	<circle class="st0" cx="806.154" cy="14.696" r="1.343"/>
</g>
<g>
	<circle class="st0" cx="811.931" cy="11.273" r="1.343"/>
</g>
<g>
	<circle class="st0" cx="817.707" cy="7.851" r="1.343"/>
</g>
<g>
	<circle class="st0" cx="823.483" cy="7.142" r="1.343"/>
</g>
<g>
	<circle class="st0" cx="829.26" cy="10.565" r="1.343"/>
</g>
<g>
	<circle class="st0" cx="835.036" cy="13.988" r="1.343"/>
</g>
<g>
	<circle class="st0" cx="840.813" cy="17.411" r="1.343"/>
</g>
<g>
	<circle class="st0" cx="846.589" cy="20.834" r="1.343"/>
</g>
<g>
	<circle class="st0" cx="852.366" cy="24.257" r="1.343"/>
</g>
<g>
	<circle class="st0" cx="858.142" cy="23.891" r="1.343"/>
</g>
<g>
	<circle class="st0" cx="863.919" cy="20.468" r="1.343"/>
</g>
<g>
	<circle class="st0" cx="869.695" cy="17.045" r="1.343"/>
</g>
<g>
	<circle class="st0" cx="875.471" cy="13.622" r="1.343"/>
</g>
<g>
	<circle class="st0" cx="881.248" cy="10.199" r="1.343"/>
</g>
<g>
	<circle class="st0" cx="887.024" cy="6.776" r="1.343"/>
</g>
<g>
	<circle class="st0" cx="892.801" cy="8.217" r="1.343"/>
</g>
<g>
	<circle class="st0" cx="898.577" cy="11.64" r="1.343"/>
</g>
<g>
	<circle class="st0" cx="904.354" cy="15.062" r="1.343"/>
</g>
<g>
	<circle class="st0" cx="910.13" cy="18.485" r="1.343"/>
</g>
<g>
	<circle class="st0" cx="915.906" cy="21.908" r="1.343"/>
</g>
<g>
	<circle class="st0" cx="921.683" cy="25.331" r="1.343"/>
</g>
<g>
	<circle class="st0" cx="927.459" cy="22.816" r="1.343"/>
</g>
<g>
	<circle class="st0" cx="933.236" cy="19.393" r="1.343"/>
</g>
<g>
	<circle class="st0" cx="939.012" cy="15.97" r="1.343"/>
</g>
<g>
	<circle class="st0" cx="944.788" cy="12.547" r="1.343"/>
</g>
<g>
	<circle class="st0" cx="950.565" cy="9.124" r="1.343"/>
</g>
<g>
	<circle class="st0" cx="956.341" cy="5.869" r="1.343"/>
</g>
<g>
	<circle class="st0" cx="961.398" cy="8.628" r="1.343"/>
</g>
<g>
	<circle class="st0" cx="967.175" cy="12.05" r="1.343"/>
</g>
<g>
	<circle class="st0" cx="972.952" cy="15.472" r="1.343"/>
</g>
<g>
	<circle class="st0" cx="978.729" cy="18.894" r="1.343"/>
</g>
<g>
	<circle class="st0" cx="984.505" cy="22.317" r="1.343"/>
</g>
<g>
	<circle class="st0" cx="990.282" cy="25.739" r="1.343"/>
</g>
<g>
	<circle class="st0" cx="996.059" cy="22.409" r="1.343"/>
</g>
<g>
	<circle class="st0" cx="1001.835" cy="18.986" r="1.343"/>
</g>
<g>
	<circle class="st0" cx="1007.612" cy="15.564" r="1.343"/>
</g>
<g>
	<circle class="st0" cx="1013.389" cy="12.141" r="1.343"/>
</g>
<g>
	<circle class="st0" cx="1019.165" cy="8.719" r="1.343"/>
</g>
<g>
	<circle class="st0" cx="1024.942" cy="6.274" r="1.343"/>
</g>
<g>
	<circle class="st0" cx="1030.719" cy="9.697" r="1.343"/>
</g>
<g>
	<circle class="st0" cx="1036.495" cy="13.119" r="1.343"/>
</g>
<g>
	<circle class="st0" cx="1042.272" cy="16.542" r="1.343"/>
</g>
<g>
	<circle class="st0" cx="1048.049" cy="19.964" r="1.343"/>
</g>
<g>
	<circle class="st0" cx="1053.825" cy="23.386" r="1.343"/>
</g>
<g>
	<circle class="st0" cx="1059.602" cy="24.761" r="1.343"/>
</g>
<g>
	<circle class="st0" cx="1065.378" cy="21.338" r="1.343"/>
</g>
<g>
	<circle class="st0" cx="1071.155" cy="17.916" r="1.343"/>
</g>
<g>
	<circle class="st0" cx="1076.932" cy="14.493" r="1.343"/>
</g>
<g>
	<circle class="st0" cx="1082.708" cy="11.071" r="1.343"/>
</g>
<g>
	<circle class="st0" cx="1088.485" cy="7.648" r="1.343"/>
</g>
<g>
	<circle class="st0" cx="1094.261" cy="7.345" r="1.343"/>
</g>
<g>
	<circle class="st0" cx="1100.038" cy="10.767" r="1.343"/>
</g>
<g>
	<circle class="st0" cx="1105.814" cy="14.19" r="1.343"/>
</g>
<g>
	<circle class="st0" cx="1111.591" cy="17.613" r="1.343"/>
</g>
<g>
	<circle class="st0" cx="1117.368" cy="21.035" r="1.343"/>
</g>
<g>
	<circle class="st0" cx="1123.144" cy="24.458" r="1.343"/>
</g>
<g>
	<circle class="st0" cx="1128.921" cy="23.689" r="1.343"/>
</g>
<g>
	<circle class="st0" cx="1134.697" cy="20.266" r="1.343"/>
</g>
<g>
	<circle class="st0" cx="1140.473" cy="16.843" r="1.343"/>
</g>
<g>
	<circle class="st0" cx="1146.25" cy="13.421" r="1.343"/>
</g>
<g>
	<circle class="st0" cx="1152.026" cy="9.998" r="1.343"/>
</g>
<g>
	<circle class="st0" cx="1157.802" cy="6.575" r="1.343"/>
</g>
<g>
	<circle class="st0" cx="1163.579" cy="8.418" r="1.343"/>
</g>
<g>
	<circle class="st0" cx="1169.355" cy="11.841" r="1.343"/>
</g>
<g>
	<circle class="st0" cx="1175.132" cy="15.264" r="1.343"/>
</g>
<g>
	<circle class="st0" cx="1180.908" cy="18.687" r="1.343"/>
</g>
<g>
	<circle class="st0" cx="1186.684" cy="22.11" r="1.343"/>
</g>
<g>
	<circle class="st0" cx="1192.461" cy="25.534" r="1.343"/>
</g>
<g>
	<circle class="st0" cx="1198.237" cy="22.614" r="1.343"/>
</g>
<g>
	<circle class="st0" cx="1204.014" cy="19.191" r="1.343"/>
</g>
<g>
	<circle class="st0" cx="1209.79" cy="15.769" r="1.343"/>
</g>
<g>
	<circle class="st0" cx="1215.567" cy="12.346" r="1.343"/>
</g>
<g>
	<circle class="st0" cx="1221.343" cy="8.923" r="1.343"/>
</g>
<g>
	<circle class="st0" cx="1227.12" cy="6.069" r="1.343"/>
</g>
<g>
	<circle class="st0" cx="1232.896" cy="9.492" r="1.343"/>
</g>
<g>
	<circle class="st0" cx="1238.673" cy="12.915" r="1.343"/>
</g>
<g>
	<circle class="st0" cx="1244.45" cy="16.337" r="1.343"/>
</g>
<g>
	<circle class="st0" cx="1250.226" cy="19.76" r="1.343"/>
</g>
<g>
	<circle class="st0" cx="1256.003" cy="23.183" r="1.343"/>
</g>
<g>
	<circle class="st0" cx="1261.779" cy="24.965" r="1.343"/>
</g>
<g>
	<circle class="st0" cx="1267.556" cy="21.542" r="1.343"/>
</g>
<g>
	<circle class="st0" cx="1273.332" cy="18.119" r="1.343"/>
</g>
<g>
	<circle class="st0" cx="1279.109" cy="14.696" r="1.343"/>
</g>
<g>
	<circle class="st0" cx="1284.885" cy="11.273" r="1.343"/>
</g>
<g>
	<circle class="st0" cx="1290.661" cy="7.851" r="1.343"/>
</g>
<g>
	<circle class="st0" cx="1296.438" cy="7.142" r="1.343"/>
</g>
<g>
	<circle class="st0" cx="1302.214" cy="10.565" r="1.343"/>
</g>
<g>
	<circle class="st0" cx="1307.991" cy="13.988" r="1.343"/>
</g>
<g>
	<circle class="st0" cx="1313.767" cy="17.411" r="1.343"/>
</g>
<g>
	<circle class="st0" cx="1319.544" cy="20.834" r="1.343"/>
</g>
<g>
	<circle class="st0" cx="1325.32" cy="24.257" r="1.343"/>
</g>
<g>
	<circle class="st0" cx="1331.097" cy="23.891" r="1.343"/>
</g>
<g>
	<circle class="st0" cx="1336.873" cy="20.468" r="1.343"/>
</g>
<g>
	<circle class="st0" cx="1342.649" cy="17.045" r="1.343"/>
</g>
<g>
	<circle class="st0" cx="1348.426" cy="13.622" r="1.343"/>
</g>
<g>
	<circle class="st0" cx="1354.202" cy="10.199" r="1.343"/>
</g>
<g>
	<circle class="st0" cx="1359.979" cy="6.776" r="1.343"/>
</g>
<g>
	<circle class="st0" cx="1365.755" cy="8.217" r="1.343"/>
</g>
<g>
	<circle class="st0" cx="1371.531" cy="11.64" r="1.343"/>
</g>
<g>
	<circle class="st0" cx="1377.308" cy="15.062" r="1.343"/>
</g>
<g>
	<circle class="st0" cx="1383.084" cy="18.485" r="1.343"/>
</g>
<g>
	<circle class="st0" cx="1388.861" cy="21.908" r="1.343"/>
</g>
<g>
	<circle class="st0" cx="1394.637" cy="25.331" r="1.343"/>
</g>
<g>
	<circle class="st0" cx="1400.414" cy="22.816" r="1.343"/>
</g>
<g>
	<circle class="st0" cx="1406.19" cy="19.393" r="1.343"/>
</g>
<g>
	<circle class="st0" cx="1411.967" cy="15.97" r="1.343"/>
</g>
<g>
	<circle class="st0" cx="1417.743" cy="12.547" r="1.343"/>
</g>
<g>
	<circle class="st0" cx="1423.519" cy="9.124" r="1.343"/>
</g>
<g>
	<circle class="st0" cx="1429.296" cy="5.869" r="1.343"/>
</g>
<g>
	<circle class="st0" cx="1435.667" cy="8.628" r="1.343"/>
</g>
<g>
	<circle class="st0" cx="1441.444" cy="12.05" r="1.343"/>
</g>
<g>
	<circle class="st0" cx="1447.221" cy="15.472" r="1.343"/>
</g>
<g>
	<circle class="st0" cx="1452.998" cy="18.894" r="1.343"/>
</g>
<g>
	<circle class="st0" cx="1458.775" cy="22.317" r="1.343"/>
</g>
<g>
	<circle class="st0" cx="1464.552" cy="25.739" r="1.343"/>
</g>
<g>
	<circle class="st0" cx="1470.328" cy="22.409" r="1.343"/>
</g>
<g>
	<circle class="st0" cx="1476.105" cy="18.986" r="1.343"/>
</g>
<g>
	<circle class="st0" cx="1481.881" cy="15.564" r="1.343"/>
</g>
<g>
	<circle class="st0" cx="1487.658" cy="12.141" r="1.343"/>
</g>
<g>
	<circle class="st0" cx="1493.435" cy="8.719" r="1.343"/>
</g>
<g>
	<circle class="st0" cx="1499.211" cy="6.274" r="1.343"/>
</g>
<g>
	<circle class="st0" cx="1504.988" cy="9.697" r="1.343"/>
</g>
<g>
	<circle class="st0" cx="1510.765" cy="13.119" r="1.343"/>
</g>
<g>
	<circle class="st0" cx="1516.541" cy="16.542" r="1.343"/>
</g>
<g>
	<circle class="st0" cx="1522.318" cy="19.964" r="1.343"/>
</g>
<g>
	<circle class="st0" cx="1528.095" cy="23.386" r="1.343"/>
</g>
<g>
	<circle class="st0" cx="1533.871" cy="24.761" r="1.343"/>
</g>
<g>
	<circle class="st0" cx="1539.648" cy="21.338" r="1.343"/>
</g>
<g>
	<circle class="st0" cx="1545.424" cy="17.916" r="1.343"/>
</g>
<g>
	<circle class="st0" cx="1551.201" cy="14.493" r="1.343"/>
</g>
<g>
	<circle class="st0" cx="1556.978" cy="11.071" r="1.343"/>
</g>
<g>
	<circle class="st0" cx="1562.754" cy="7.648" r="1.343"/>
</g>
<g>
	<circle class="st0" cx="1568.531" cy="7.345" r="1.343"/>
</g>
<g>
	<circle class="st0" cx="1574.307" cy="10.767" r="1.343"/>
</g>
<g>
	<circle class="st0" cx="1580.084" cy="14.19" r="1.343"/>
</g>
<g>
	<circle class="st0" cx="1585.86" cy="17.613" r="1.343"/>
</g>
<g>
	<circle class="st0" cx="1591.637" cy="21.035" r="1.343"/>
</g>
<g>
	<circle class="st0" cx="1597.414" cy="24.458" r="1.343"/>
</g>
<g>
	<circle class="st0" cx="1603.19" cy="23.689" r="1.343"/>
</g>
<g>
	<circle class="st0" cx="1608.966" cy="20.266" r="1.343"/>
</g>
<g>
	<circle class="st0" cx="1614.743" cy="16.843" r="1.343"/>
</g>
<g>
	<circle class="st0" cx="1620.519" cy="13.421" r="1.343"/>
</g>
<g>
	<circle class="st0" cx="1626.296" cy="9.998" r="1.343"/>
</g>
<g>
	<circle class="st0" cx="1632.072" cy="6.575" r="1.343"/>
</g>
<g>
	<circle class="st0" cx="1637.848" cy="8.418" r="1.343"/>
</g>
<g>
	<circle class="st0" cx="1643.625" cy="11.841" r="1.343"/>
</g>
<g>
	<circle class="st0" cx="1649.401" cy="15.264" r="1.343"/>
</g>
<g>
	<circle class="st0" cx="1655.177" cy="18.687" r="1.343"/>
</g>
<g>
	<circle class="st0" cx="1660.954" cy="22.11" r="1.343"/>
</g>
<g>
	<circle class="st0" cx="1666.73" cy="25.534" r="1.343"/>
</g>
<g>
	<circle class="st0" cx="1672.507" cy="22.614" r="1.343"/>
</g>
<g>
	<circle class="st0" cx="1678.283" cy="19.191" r="1.343"/>
</g>
<g>
	<circle class="st0" cx="1684.06" cy="15.769" r="1.343"/>
</g>
<g>
	<circle class="st0" cx="1689.836" cy="12.346" r="1.343"/>
</g>
<g>
	<circle class="st0" cx="1695.613" cy="8.923" r="1.343"/>
</g>
<g>
	<circle class="st0" cx="1701.389" cy="6.069" r="1.343"/>
</g>
<g>
	<circle class="st0" cx="1707.166" cy="9.492" r="1.343"/>
</g>
<g>
	<circle class="st0" cx="1712.943" cy="12.915" r="1.343"/>
</g>
<g>
	<circle class="st0" cx="1718.719" cy="16.337" r="1.343"/>
</g>
<g>
	<circle class="st0" cx="1724.496" cy="19.76" r="1.343"/>
</g>
<g>
	<circle class="st0" cx="1730.272" cy="23.183" r="1.343"/>
</g>
<g>
	<circle class="st0" cx="1736.049" cy="24.965" r="1.343"/>
</g>
<g>
	<circle class="st0" cx="1741.825" cy="21.542" r="1.343"/>
</g>
<g>
	<circle class="st0" cx="1747.602" cy="18.119" r="1.343"/>
</g>
<g>
	<circle class="st0" cx="1753.378" cy="14.696" r="1.343"/>
</g>
<g>
	<circle class="st0" cx="1759.155" cy="11.273" r="1.343"/>
</g>
<g>
	<circle class="st0" cx="1764.931" cy="7.851" r="1.343"/>
</g>
<g>
	<circle class="st0" cx="1770.707" cy="7.142" r="1.343"/>
</g>
<g>
	<circle class="st0" cx="1776.484" cy="10.565" r="1.343"/>
</g>
<g>
	<circle class="st0" cx="1782.26" cy="13.988" r="1.343"/>
</g>
<g>
	<circle class="st0" cx="1788.037" cy="17.411" r="1.343"/>
</g>
<g>
	<circle class="st0" cx="1793.813" cy="20.834" r="1.343"/>
</g>
<g>
	<circle class="st0" cx="1799.59" cy="24.257" r="1.343"/>
</g>
<g>
	<circle class="st0" cx="1805.366" cy="23.891" r="1.343"/>
</g>
<g>
	<circle class="st0" cx="1811.142" cy="20.468" r="1.343"/>
</g>
<g>
	<circle class="st0" cx="1816.919" cy="17.045" r="1.343"/>
</g>
<g>
	<circle class="st0" cx="1822.695" cy="13.622" r="1.343"/>
</g>
<g>
	<circle class="st0" cx="1828.472" cy="10.199" r="1.343"/>
</g>
<g>
	<circle class="st0" cx="1834.248" cy="6.776" r="1.343"/>
</g>
<g>
	<circle class="st0" cx="1840.025" cy="8.217" r="1.343"/>
</g>
<g>
	<circle class="st0" cx="1845.801" cy="11.64" r="1.343"/>
</g>
<g>
	<circle class="st0" cx="1851.577" cy="15.062" r="1.343"/>
</g>
<g>
	<circle class="st0" cx="1857.354" cy="18.485" r="1.343"/>
</g>
<g>
	<circle class="st0" cx="1863.13" cy="21.908" r="1.343"/>
</g>
<g>
	<circle class="st0" cx="1868.907" cy="25.331" r="1.343"/>
</g>
<g>
	<circle class="st0" cx="1874.683" cy="22.816" r="1.343"/>
</g>
<g>
	<circle class="st0" cx="1880.46" cy="19.393" r="1.343"/>
</g>
<g>
	<circle class="st0" cx="1886.236" cy="15.97" r="1.343"/>
</g>
<g>
	<circle class="st0" cx="1892.012" cy="12.547" r="1.343"/>
</g>
<g>
	<circle class="st0" cx="1897.789" cy="9.124" r="1.343"/>
</g>
<g>
	<circle class="st0" cx="1903.565" cy="5.869" r="1.343"/>
</g>
<g>
	<circle class="st0" cx="1908.096" cy="8.217" r="1.343"/>
</g>
<g>
	<circle class="st0" cx="1913.872" cy="11.64" r="1.343"/>
</g>
<g>
	<circle class="st0" cx="1919.649" cy="15.062" r="1.343"/>
</g>
<g>
	<circle class="st0" cx="1925.425" cy="18.485" r="1.343"/>
</g>
<g>
	<circle class="st0" cx="1931.202" cy="21.908" r="1.343"/>
</g>
<g>
	<circle class="st0" cx="1936.978" cy="25.331" r="1.343"/>
</g>
<g>
	<circle class="st0" cx="1942.754" cy="22.816" r="1.343"/>
</g>
<g>
	<circle class="st0" cx="1948.531" cy="19.393" r="1.343"/>
</g>
<g>
	<circle class="st0" cx="1954.307" cy="15.97" r="1.343"/>
</g>
<g>
	<circle class="st0" cx="1960.083" cy="12.547" r="1.343"/>
</g>
<g>
	<circle class="st0" cx="1965.86" cy="9.124" r="1.343"/>
</g>
<g>
	<circle class="st0" cx="1971.636" cy="5.869" r="1.343"/>
</g>
<g>
	<circle class="st0" cx="1978.008" cy="8.628" r="1.343"/>
</g>
<g>
	<circle class="st0" cx="1983.785" cy="12.05" r="1.343"/>
</g>
<g>
	<circle class="st0" cx="1989.562" cy="15.472" r="1.343"/>
</g>
<g>
	<circle class="st0" cx="1995.339" cy="18.894" r="1.343"/>
</g>
<g>
	<circle class="st0" cx="2001.115" cy="22.317" r="1.343"/>
</g>
<g>
	<circle class="st0" cx="2006.892" cy="25.739" r="1.343"/>
</g>
<g>
	<circle class="st0" cx="2012.669" cy="22.409" r="1.343"/>
</g>
<g>
	<circle class="st0" cx="2018.445" cy="18.986" r="1.343"/>
</g>
<g>
	<circle class="st0" cx="2024.222" cy="15.564" r="1.343"/>
</g>
<g>
	<circle class="st0" cx="2029.999" cy="12.141" r="1.343"/>
</g>
<g>
	<circle class="st0" cx="2035.775" cy="8.719" r="1.343"/>
</g>
<g>
	<circle class="st0" cx="2041.552" cy="6.274" r="1.343"/>
</g>
<g>
	<circle class="st0" cx="2047.329" cy="9.697" r="1.343"/>
</g>
<g>
	<circle class="st0" cx="2053.105" cy="13.119" r="1.343"/>
</g>
<g>
	<circle class="st0" cx="2058.882" cy="16.542" r="1.343"/>
</g>
<g>
	<circle class="st0" cx="2064.658" cy="19.964" r="1.343"/>
</g>
<g>
	<circle class="st0" cx="2070.435" cy="23.386" r="1.343"/>
</g>
<g>
	<circle class="st0" cx="2076.212" cy="24.761" r="1.343"/>
</g>
<g>
	<circle class="st0" cx="2081.988" cy="21.338" r="1.343"/>
</g>
<g>
	<circle class="st0" cx="2087.765" cy="17.916" r="1.343"/>
</g>
<g>
	<circle class="st0" cx="2093.542" cy="14.493" r="1.343"/>
</g>
<g>
	<circle class="st0" cx="2099.318" cy="11.071" r="1.343"/>
</g>
<g>
	<circle class="st0" cx="2105.095" cy="7.648" r="1.343"/>
</g>
<g>
	<circle class="st0" cx="2110.871" cy="7.345" r="1.343"/>
</g>
<g>
	<circle class="st0" cx="2116.648" cy="10.767" r="1.343"/>
</g>
<g>
	<circle class="st0" cx="2122.424" cy="14.19" r="1.343"/>
</g>
<g>
	<circle class="st0" cx="2128.201" cy="17.613" r="1.343"/>
</g>
<g>
	<circle class="st0" cx="2133.978" cy="21.035" r="1.343"/>
</g>
<g>
	<circle class="st0" cx="2139.754" cy="24.458" r="1.343"/>
</g>
<g>
	<circle class="st0" cx="2145.531" cy="23.689" r="1.343"/>
</g>
<g>
	<circle class="st0" cx="2151.307" cy="20.266" r="1.343"/>
</g>
<g>
	<circle class="st0" cx="2157.083" cy="16.843" r="1.343"/>
</g>
<g>
	<circle class="st0" cx="2162.86" cy="13.421" r="1.343"/>
</g>
<g>
	<circle class="st0" cx="2168.636" cy="9.998" r="1.343"/>
</g>
<g>
	<circle class="st0" cx="2174.413" cy="6.575" r="1.343"/>
</g>
<g>
	<circle class="st0" cx="2180.189" cy="8.418" r="1.343"/>
</g>
<g>
	<circle class="st0" cx="2185.965" cy="11.841" r="1.343"/>
</g>
<g>
	<circle class="st0" cx="2191.741" cy="15.264" r="1.343"/>
</g>
<g>
	<circle class="st0" cx="2197.518" cy="18.687" r="1.343"/>
</g>
<g>
	<circle class="st0" cx="2203.294" cy="22.11" r="1.343"/>
</g>
<g>
	<circle class="st0" cx="2209.071" cy="25.534" r="1.343"/>
</g>
<g>
	<circle class="st0" cx="2214.847" cy="22.614" r="1.343"/>
</g>
<g>
	<circle class="st0" cx="2220.624" cy="19.191" r="1.343"/>
</g>
<g>
	<circle class="st0" cx="2226.4" cy="15.769" r="1.343"/>
</g>
<g>
	<circle class="st0" cx="2232.177" cy="12.346" r="1.343"/>
</g>
<g>
	<circle class="st0" cx="2237.953" cy="8.923" r="1.343"/>
</g>
<g>
	<circle class="st0" cx="2243.73" cy="6.069" r="1.343"/>
</g>
<g>
	<circle class="st0" cx="2249.507" cy="9.492" r="1.343"/>
</g>
<g>
	<circle class="st0" cx="2255.283" cy="12.915" r="1.343"/>
</g>
<g>
	<circle class="st0" cx="2261.06" cy="16.337" r="1.343"/>
</g>
<g>
	<circle class="st0" cx="2266.836" cy="19.76" r="1.343"/>
</g>
<g>
	<circle class="st0" cx="2272.613" cy="23.183" r="1.343"/>
</g>
<g>
	<circle class="st0" cx="2278.389" cy="24.965" r="1.343"/>
</g>
<g>
	<circle class="st0" cx="2284.166" cy="21.542" r="1.343"/>
</g>
<g>
	<circle class="st0" cx="2289.942" cy="18.119" r="1.343"/>
</g>
<g>
	<circle class="st0" cx="2295.719" cy="14.696" r="1.343"/>
</g>
<g>
	<circle class="st0" cx="2301.495" cy="11.273" r="1.343"/>
</g>
<g>
	<circle class="st0" cx="2307.271" cy="7.851" r="1.343"/>
</g>
<g>
	<circle class="st0" cx="2313.048" cy="7.142" r="1.343"/>
</g>
<g>
	<circle class="st0" cx="2318.824" cy="10.565" r="1.343"/>
</g>
<g>
	<circle class="st0" cx="2324.601" cy="13.988" r="1.343"/>
</g>
<g>
	<circle class="st0" cx="2330.377" cy="17.411" r="1.343"/>
</g>
<g>
	<circle class="st0" cx="2336.154" cy="20.834" r="1.343"/>
</g>
<g>
	<circle class="st0" cx="2341.93" cy="24.257" r="1.343"/>
</g>
<g>
	<circle class="st0" cx="2347.707" cy="23.891" r="1.343"/>
</g>
<g>
	<circle class="st0" cx="2353.483" cy="20.468" r="1.343"/>
</g>
<g>
	<circle class="st0" cx="2359.26" cy="17.045" r="1.343"/>
</g>
<g>
	<circle class="st0" cx="2365.036" cy="13.622" r="1.343"/>
</g>
<g>
	<circle class="st0" cx="2370.812" cy="10.199" r="1.343"/>
</g>
<g>
	<circle class="st0" cx="2376.589" cy="6.776" r="1.343"/>
</g>
<g>
	<circle class="st0" cx="2382.365" cy="8.217" r="1.343"/>
</g>
<g>
	<circle class="st0" cx="2388.142" cy="11.64" r="1.343"/>
</g>
<g>
	<circle class="st0" cx="2393.918" cy="15.062" r="1.343"/>
</g>
<g>
	<circle class="st0" cx="2399.695" cy="18.485" r="1.343"/>
</g>
<g>
	<circle class="st0" cx="2405.471" cy="21.908" r="1.343"/>
</g>
<g>
	<circle class="st0" cx="2411.247" cy="25.331" r="1.343"/>
</g>
<g>
	<circle class="st0" cx="2417.024" cy="22.816" r="1.343"/>
</g>
<g>
	<circle class="st0" cx="2422.8" cy="19.393" r="1.343"/>
</g>
<g>
	<circle class="st0" cx="2428.577" cy="15.97" r="1.343"/>
</g>
<g>
	<circle class="st0" cx="2434.353" cy="12.547" r="1.343"/>
</g>
<g>
	<circle class="st0" cx="2440.129" cy="9.124" r="1.343"/>
</g>
<g>
	<circle class="st0" cx="2445.906" cy="5.869" r="1.343"/>
</g>
<g>
	<circle class="st0" cx="2450.339" cy="8.418" r="1.343"/>
</g>
<g>
	<circle class="st0" cx="2456.116" cy="11.841" r="1.343"/>
</g>
<g>
	<circle class="st0" cx="2461.892" cy="15.264" r="1.343"/>
</g>
<g>
	<circle class="st0" cx="2467.668" cy="18.687" r="1.343"/>
</g>
<g>
	<circle class="st0" cx="2473.445" cy="22.11" r="1.343"/>
</g>
<g>
	<circle class="st0" cx="2479.221" cy="25.534" r="1.343"/>
</g>
<g>
	<circle class="st0" cx="2484.998" cy="22.614" r="1.343"/>
</g>
<g>
	<circle class="st0" cx="2490.774" cy="19.191" r="1.343"/>
</g>
<g>
	<circle class="st0" cx="2496.551" cy="15.769" r="1.343"/>
</g>
<g>
	<circle class="st0" cx="2502.327" cy="12.346" r="1.343"/>
</g>
<g>
	<circle class="st0" cx="2508.104" cy="8.923" r="1.343"/>
</g>
<g>
	<circle class="st0" cx="2513.88" cy="6.069" r="1.343"/>
</g>
<g>
	<circle class="st0" cx="2519.657" cy="9.492" r="1.343"/>
</g>
<g>
	<circle class="st0" cx="2525.434" cy="12.915" r="1.343"/>
</g>
<g>
	<circle class="st0" cx="2531.21" cy="16.337" r="1.343"/>
</g>
<g>
	<circle class="st0" cx="2536.987" cy="19.76" r="1.343"/>
</g>
<g>
	<circle class="st0" cx="2542.763" cy="23.183" r="1.343"/>
</g>
<g>
	<circle class="st0" cx="2548.54" cy="24.965" r="1.343"/>
</g>
<g>
	<circle class="st0" cx="2554.316" cy="21.542" r="1.343"/>
</g>
<g>
	<circle class="st0" cx="2560.093" cy="18.119" r="1.343"/>
</g>
<g>
	<circle class="st0" cx="2565.869" cy="14.696" r="1.343"/>
</g>
<g>
	<circle class="st0" cx="2571.646" cy="11.273" r="1.343"/>
</g>
<g>
	<circle class="st0" cx="2577.422" cy="7.851" r="1.343"/>
</g>
<g>
	<circle class="st0" cx="2583.198" cy="7.142" r="1.343"/>
</g>
<g>
	<circle class="st0" cx="2588.975" cy="10.565" r="1.343"/>
</g>
<g>
	<circle class="st0" cx="2594.751" cy="13.988" r="1.343"/>
</g>
<g>
	<circle class="st0" cx="2600.528" cy="17.411" r="1.343"/>
</g>
<g>
	<circle class="st0" cx="2606.304" cy="20.834" r="1.343"/>
</g>
<g>
	<circle class="st0" cx="2612.081" cy="24.257" r="1.343"/>
</g>
<g>
	<circle class="st0" cx="2617.857" cy="23.891" r="1.343"/>
</g>
<g>
	<circle class="st0" cx="2623.634" cy="20.468" r="1.343"/>
</g>
<g>
	<circle class="st0" cx="2629.41" cy="17.045" r="1.343"/>
</g>
<g>
	<circle class="st0" cx="2635.186" cy="13.622" r="1.343"/>
</g>
<g>
	<circle class="st0" cx="2640.963" cy="10.199" r="1.343"/>
</g>
<g>
	<circle class="st0" cx="2646.739" cy="6.776" r="1.343"/>
</g>
<g>
	<circle class="st0" cx="2652.516" cy="8.217" r="1.343"/>
</g>
<g>
	<circle class="st0" cx="2658.292" cy="11.64" r="1.343"/>
</g>
<g>
	<circle class="st0" cx="2664.069" cy="15.062" r="1.343"/>
</g>
<g>
	<circle class="st0" cx="2669.845" cy="18.485" r="1.343"/>
</g>
<g>
	<circle class="st0" cx="2675.621" cy="21.908" r="1.343"/>
</g>
</svg>
