<?xml version="1.0" encoding="utf-8"?>
<!-- Generator: Adobe Illustrator 24.3.0, SVG Export Plug-In . SVG Version: 6.00 Build 0)  -->
<svg version="1.1" id="Layer_1" xmlns="http://www.w3.org/2000/svg" xmlns:xlink="http://www.w3.org/1999/xlink" x="0px" y="0px"
	 viewBox="0 0 325 92.235" style="enable-background:new 0 0 325 92.235;" xml:space="preserve">
<style type="text/css">
	.st0{fill:#F99246;}
	.st1{fill:#D03232;}
	.st2{fill:#72B342;}
	.st3{fill:#FFFFFF;}
	.st4{fill:#F7C548;}
</style>
<g>
	<polyline class="st0" points="28.36,58.832 55.07,85.542 83.32,57.291 56.996,30.967 31.313,56.649 	"/>
	<polyline class="st0" points="97.444,58.832 124.154,85.542 152.404,57.291 126.08,30.967 100.398,56.649 	"/>
	<polyline class="st0" points="166.528,58.832 193.238,85.542 221.488,57.291 195.164,30.967 169.482,56.649 	"/>
	<polyline class="st0" points="235.612,58.832 262.322,85.542 290.572,57.291 264.248,30.967 238.566,56.649 	"/>
	<polyline class="st1" points="216.596,84.363 226.978,90.022 232.963,79.041 222.731,73.464 217.29,83.447 	"/>
	<polyline class="st1" points="147.512,84.363 157.894,90.022 163.879,79.041 153.647,73.464 148.206,83.447 	"/>
	<polyline class="st1" points="78.428,84.363 88.81,90.022 94.795,79.041 84.563,73.464 79.122,83.447 	"/>
	<polyline class="st2" points="25.597,58.832 52.306,85.542 80.557,57.291 54.232,30.967 28.55,56.649 	"/>
	<polyline class="st3" points="45.613,72.611 66.848,66.358 60.234,43.898 39.305,50.061 45.318,70.479 	"/>
	<polyline class="st1" points="47.022,60.193 54.703,64.38 59.131,56.255 51.561,52.129 47.535,59.515 	"/>
	<polyline class="st2" points="94.681,58.832 121.39,85.542 149.641,57.291 123.316,30.967 97.634,56.649 	"/>
	<polyline class="st3" points="114.697,72.611 135.932,66.358 129.318,43.898 108.389,50.061 114.402,70.479 	"/>
	<polyline class="st1" points="116.106,60.193 123.787,64.38 128.215,56.255 120.645,52.129 116.619,59.515 	"/>
	<polyline class="st2" points="163.765,58.832 190.474,85.542 218.725,57.291 192.4,30.967 166.718,56.649 	"/>
	<polyline class="st3" points="183.781,72.611 205.016,66.358 198.402,43.898 177.474,50.061 183.486,70.479 	"/>
	<polyline class="st1" points="185.19,60.193 192.871,64.38 197.299,56.255 189.729,52.129 185.703,59.515 	"/>
	<polyline class="st2" points="232.849,58.832 259.558,85.542 287.809,57.291 261.485,30.967 235.802,56.649 	"/>
	<polyline class="st3" points="252.865,72.611 274.1,66.358 267.486,43.898 246.558,50.061 252.57,70.479 	"/>
	<polyline class="st1" points="254.274,60.193 261.955,64.38 266.383,56.255 258.813,52.129 254.788,59.515 	"/>
	<polyline class="st0" points="218.725,83.682 226.406,87.868 230.834,79.744 223.264,75.618 219.238,83.003 	"/>
	<g>
		<polyline class="st4" points="2.529,8.843 6.532,11.024 8.839,6.791 4.894,4.641 2.797,8.489 		"/>
		<polyline class="st4" points="21.127,8.843 25.129,11.024 27.436,6.791 23.492,4.641 21.395,8.489 		"/>
		<polyline class="st4" points="39.725,8.843 43.727,11.024 46.034,6.791 42.09,4.641 39.992,8.489 		"/>
		<polyline class="st4" points="58.323,8.843 62.325,11.024 64.632,6.791 60.687,4.641 58.59,8.489 		"/>
		<polyline class="st4" points="76.92,8.843 80.922,11.024 83.23,6.791 79.285,4.641 77.188,8.489 		"/>
		<polyline class="st4" points="95.518,8.843 99.52,11.024 101.827,6.791 97.883,4.641 95.785,8.489 		"/>
		<polyline class="st4" points="114.116,8.843 118.118,11.024 120.425,6.791 116.481,4.641 114.383,8.489 		"/>
		<polyline class="st4" points="132.713,8.843 136.716,11.024 139.023,6.791 135.078,4.641 132.981,8.489 		"/>
		<polyline class="st4" points="151.311,8.843 155.313,11.024 157.62,6.791 153.676,4.641 151.579,8.489 		"/>
		<polyline class="st4" points="169.909,8.843 173.911,11.024 176.218,6.791 172.274,4.641 170.176,8.489 		"/>
		<polyline class="st4" points="188.507,8.843 192.509,11.024 194.816,6.791 190.872,4.641 188.774,8.489 		"/>
		<polyline class="st4" points="207.104,8.843 211.107,11.024 213.414,6.791 209.469,4.641 207.372,8.489 		"/>
		<polyline class="st4" points="225.702,8.843 229.704,11.024 232.011,6.791 228.067,4.641 225.97,8.489 		"/>
		<polyline class="st4" points="244.3,8.843 248.302,11.024 250.609,6.791 246.665,4.641 244.567,8.489 		"/>
		<polyline class="st4" points="262.898,8.843 266.9,11.024 269.207,6.791 265.262,4.641 263.165,8.489 		"/>
		<polyline class="st4" points="281.495,8.843 285.497,11.024 287.805,6.791 283.86,4.641 281.763,8.489 		"/>
		<polyline class="st4" points="300.093,8.843 304.095,11.024 306.402,6.791 302.458,4.641 300.36,8.489 		"/>
		<polyline class="st4" points="318.691,8.843 322.693,11.024 325,6.791 321.056,4.641 318.958,8.489 		"/>
	</g>
	<polyline class="st0" points="149.641,83.682 157.322,87.868 161.75,79.744 154.18,75.618 150.154,83.003 	"/>
	<polyline class="st0" points="80.557,83.682 88.238,87.868 92.666,79.744 85.096,75.618 81.07,83.003 	"/>
</g>
</svg>
