<?xml version="1.0" encoding="utf-8"?>
<!-- Generator: Adobe Illustrator 24.3.0, SVG Export Plug-In . SVG Version: 6.00 Build 0)  -->
<svg version="1.1" id="Layer_1" xmlns="http://www.w3.org/2000/svg" xmlns:xlink="http://www.w3.org/1999/xlink" x="0px" y="0px"
	 viewBox="0 0 325 120.353" style="enable-background:new 0 0 325 120.353;" xml:space="preserve">
<style type="text/css">
	.st0{fill:#683A02;}
</style>
<g>
	<g>
		<path class="st0" d="M81.484,44.072c0.012,4.979,0.024,9.957,0.036,14.936c-10.19-0.435-20.379-0.843-30.565-1.204
			c-0.079-14.63-0.157-29.249-0.235-43.858c9.432-2.05,18.884-3.973,28.351-5.747c0.191,4.535,0.383,9.076,0.574,13.621
			c-4.685,0.461-9.368,0.955-14.047,1.479c-0.221,7.474-0.443,14.936-0.665,22.385C70.448,45.14,75.966,44.602,81.484,44.072z"/>
	</g>
	<g>
		<path class="st0" d="M125.275,47.295c-0.538,3.198-1.076,6.394-1.614,9.586c-7.648,0.428-15.296,0.853-22.943,1.27
			c-4.565-0.501-9.13-0.991-13.694-1.468c0.349-16.031,0.697-32.093,1.044-48.187c11.135-1.232,22.291-2.217,33.457-2.949
			C122.777,19.426,124.027,33.344,125.275,47.295z M110.481,43.316c-0.356-7.437-0.711-14.866-1.067-22.288
			c-2.88-0.025-5.76-0.036-8.639-0.033c-0.109,7.676-0.218,15.348-0.327,23.016C103.792,43.775,107.136,43.542,110.481,43.316z"/>
	</g>
	<g>
		<path class="st0" d="M162.766,42.336c0.001,5.275,0.002,10.55,0.003,15.825c-10.188-0.46-20.377-0.926-30.566-1.379
			c-0.108-16.653-0.216-33.305-0.324-49.954c9.509-1.106,19.025-2.041,28.543-2.781c0.183,4.852,0.366,9.704,0.549,14.555
			c-4.703,0.076-9.406,0.186-14.108,0.33c-0.225,8.189-0.45,16.377-0.675,24.566C151.713,43.092,157.24,42.704,162.766,42.336z"/>
	</g>
	<g>
		<path class="st0" d="M184.278,4.993c0.086,17.231,0.172,34.458,0.257,51.679c-5.16,0.411-10.319,0.829-15.478,1.251
			c-0.179-17.556-0.359-35.116-0.539-52.682C173.772,5.1,179.026,5.017,184.278,4.993z"/>
	</g>
	<g>
		<path class="st0" d="M231.353,56.133c-4.771,0.135-9.542,0.275-14.313,0.42c-0.091-5.024-0.183-10.051-0.274-15.081
			c-3.438-4.534-6.878-9.145-10.32-13.814c-0.123,9.549-0.247,19.102-0.37,28.66c-4.59-0.045-9.18-0.09-13.769-0.134
			c-0.08-16.444-0.159-32.895-0.24-49.351c4.522-0.258,9.044-0.467,13.564-0.626c3.807,5.734,7.611,11.403,11.412,16.979
			c-0.013-5.294-0.026-10.589-0.039-15.885c4.931,0.352,9.86,0.755,14.785,1.209C231.644,24.372,231.499,40.247,231.353,56.133z"/>
	</g>
	<g>
		<path class="st0" d="M277.217,56.644c-4.666,0.21-9.331,0.431-13.997,0.663c-0.255-2.938-0.511-5.884-0.766-8.837
			c-3.705,0.208-7.411,0.432-11.118,0.672c-0.135,2.634-0.271,5.272-0.406,7.912c-4.459-0.037-8.917-0.075-13.376-0.115
			c0.646-9.161,1.292-18.28,1.937-27.354c3.308-6.39,6.613-12.601,9.914-18.606c4.553,0.399,9.103,0.846,13.648,1.343
			c3.787,6.177,7.577,12.163,11.373,17.925C275.354,39.143,276.284,47.943,277.217,56.644z M261.464,38.074
			c-0.153-1.94-0.306-3.884-0.459-5.83c-1.443-2.856-2.886-5.75-4.328-8.679c-1.403,2.601-2.807,5.241-4.212,7.918
			c-0.186,2.197-0.371,4.398-0.557,6.602C255.094,38.066,258.28,38.063,261.464,38.074z"/>
	</g>
</g>
<g>
	<path class="st0" d="M14.848,67.747l9.643,18.51l9.49-18.51l12.677,0.466l1.789,47.367l-14.543,1.009L32.89,91.312l-3.887,8.71
		l-8.4,0.625l-4.357-9.102l-0.155,24.811l-14.621-0.078l0.933-46.976L14.848,67.747z"/>
	<path class="st0" d="M85.684,116.123L55.04,115.89l0.31-45.734l2.956-2.021l26.444-0.543l-0.31,12.365l-14.778,0.078l-0.155,6.223
		l11.121-0.078l-0.155,11.434l-11.666-0.155l0.078,6.533l17.267-0.469L85.684,116.123z"/>
	<path class="st0" d="M110.248,100.41l-3.887,3.503l-0.933,12.365l-16.256-0.857l2.956-19.441l7.854-5.133l-8.167-4.978
		l-1.243-17.113l15.633-0.621l0.31,12.054l3.889,3.736l3.577-3.189l0.466-12.213l15.401,0.547l-1.556,17.11l-7.311,4.9l7.389,4.978
		l3.112,19.364l-16.256,0.857l-0.698-12.365L110.248,100.41z"/>
	<path class="st0" d="M152.467,67.592l0.31,47.911l-15.478,1.009l-0.543-48.299L152.467,67.592z"/>
	<path class="st0" d="M191.813,102.203v14.464l-30.564-1.556l-0.235-45.73l28.464-2.18l0.547,13.3l-14.079,0.237l-0.698,22.398
		L191.813,102.203z"/>
	<path class="st0" d="M235.2,116.201l-13.998,0.621l-0.78-9.641l-11.123,0.931l-0.388,8.322l-13.377-0.233l1.866-27.845
		l9.878-20.143l13.688-0.543l11.434,18.433L235.2,116.201z M219.414,95.902l-0.469-6.301l-4.353-8.943l-4.202,8.788l-0.543,6.999
		L219.414,95.902z"/>
	<path class="st0" d="M279.13,115.343l-14.312,0.314l-0.31-14.623l-10.343-12.989l-0.31,27.298l-13.769-0.233l-0.31-46.122
		l13.532-1.319l11.434,15.631l-0.078-15.399l14.778-0.155L279.13,115.343z"/>
	<path class="st0" d="M325,116.201l-13.998,0.621l-0.78-9.641l-11.123,0.931l-0.388,8.322l-13.377-0.233l1.866-27.845l9.878-20.143
		l13.688-0.543l11.434,18.433L325,116.201z M309.213,95.902l-0.469-6.301l-4.353-8.943l-4.202,8.788l-0.543,6.999L309.213,95.902z"
		/>
</g>
<g>
</g>
<g>
</g>
<g>
</g>
<g>
</g>
<g>
</g>
<g>
</g>
</svg>
