<?xml version="1.0" encoding="utf-8"?>
<!-- Generator: Adobe Illustrator 24.3.0, SVG Export Plug-In . SVG Version: 6.00 Build 0)  -->
<svg version="1.1" id="Layer_1" xmlns="http://www.w3.org/2000/svg" xmlns:xlink="http://www.w3.org/1999/xlink" x="0px" y="0px"
	 viewBox="0 0 325 44.824" style="enable-background:new 0 0 325 44.824;" xml:space="preserve">
<style type="text/css">
	.st0{opacity:0.71;}
	.st1{fill:#72B342;}
</style>
<g class="st0">
	<g>
		<path class="st1" d="M228.365,22.693c0.508,0.879,4.825-3.983,4.792-6.609c-0.528-2.202-2.01-4.802-3.848-6.102
			c-0.337-0.243-0.772-0.477-1.12-0.342c-0.469,0.181-0.371,0.832-0.175,1.322c0.601,1.482,1.555,2.924,2.774,4.12
			c-1.015-0.914-2.417-1.354-3.675-1.246c-0.313,0.027-0.65,0.109-0.773,0.368c-0.183,0.383,0.21,0.874,0.597,1.19
			c1.011,0.821,2.256,1.363,3.505,1.456c-1.471,0.035-2.815,0.769-3.544,1.919c-0.123,0.195-0.233,0.43-0.155,0.671
			c0.115,0.354,0.551,0.506,0.915,0.542c0.944,0.095,1.888-0.159,2.618-0.718C229.454,20.252,227.893,21.909,228.365,22.693z"/>
	</g>
	<g>
		<path class="st1" d="M237.742,10.355c0.146,0.043,0.098,0.898-0.906,1.564c-0.485,0.304-1.177,0.502-1.968,0.303
			c-0.802-0.179-1.638-0.983-1.975-2.105c-0.348-1.12-0.331-2.511,0.228-3.872c0.555-1.334,1.555-2.394,2.683-3.009
			c1.131-0.618,2.445-0.863,3.776-0.451c0.662,0.21,1.341,0.607,1.905,1.258c0.568,0.633,0.966,1.489,1.197,2.352
			c0.435,1.754,0.281,3.381,0.008,4.823c-0.301,1.422-0.716,2.708-1.229,3.897c-1.014,2.376-2.391,4.235-3.705,5.571
			c-2.698,2.663-4.949,3.243-5.066,2.892c-0.196-0.424,1.612-1.694,3.65-4.412c1-1.367,2.046-3.101,2.82-5.187
			c0.749-2.031,1.438-4.665,0.997-6.518c-0.228-0.879-0.653-1.386-1.349-1.642c-0.689-0.253-1.506-0.183-2.201,0.135
			c-1.454,0.623-2.119,2.125-1.9,3.354c0.106,0.589,0.348,0.987,0.706,1.207c0.363,0.228,0.787,0.279,1.12,0.233
			C237.215,10.663,237.573,10.235,237.742,10.355z"/>
	</g>
	<path class="st1" d="M237.993,43.243c-2.765-0.441-4.428-2.113-5.364-4.419c-0.946-2.329-0.747-4.981,0.097-7.308
		c0.559-1.54,1.469-2.9,2.591-4.085c1.032-1.091,2.406-2.236,3.671-3.004c1.603-0.974,2.835-1.335,5.263-1.899
		c-0.03-1.379-0.266-2.752-0.184-4.134c0.351-5.872,6.148-11.035,11.936-11.009c3.965,0.018,7.822,0.927,11.417,2.712
		c7.041,3.497,13.199,8.35,19.606,12.817c4.8,3.347,9.501,6.835,14.641,9.67c3.633,2.003,7.463,2.978,11.612,2.47
		c3.16-0.387,5.506-2.151,7.22-4.69c1.885-2.792,1.711-6.78-0.059-9.554c-1.201-1.882-2.939-3.281-5.134-3.791
		c-4.02-0.933-8.331-0.119-9.256,4.526c-0.443,2.222,0.845,4.237,3.256,4.213c2.187-0.022,1.564-2.666,2.97-3.623
		c1.662-1.131,3.71-0.241,3.982,1.77c0.257,1.9-0.821,3.827-2.595,4.642c-4.033,1.852-10.115-0.064-10.575-5.717
		c-0.36-4.427,2.678-8.424,7.077-9.31c2.153-0.433,4.504-0.331,6.552,0.503c2.492,1.015,4.478,2.467,6.026,4.636
		c2.976,4.167,2.935,10.207,0.297,14.545c-3.263,5.366-10.435,6.771-16.048,4.957c-4.467-1.444-8.448-3.79-12.294-6.403
		c-7.167-4.869-14.129-10.034-21.42-14.725c-4.642-2.986-10.004-6.164-15.714-6.404c-2.952-0.124-5.94,0.906-8.164,2.856
		c-2.396,2.101-2.864,5.817-2.506,8.966c1.407,0.105,2.139,0.183,3.536,0.483c1.976,0.425,3.872,1.177,5.519,2.362
		c1.246,0.896,2.343,1.908,2.943,3.391c1.038,2.565-0.319,4.528-3.076,4.156c-2.198-0.297-4.289-1.104-6.021-2.545
		c-1.163-0.967-2.248-2.011-3.229-3.201c-0.86-1.043-1.072-1.436-1.979-1.422c-5.08,0.081-10.632,4.659-10.541,10.817
		C234.115,41.039,237.053,42.454,237.993,43.243z M248.595,25.585c2.211,3.848,6.766,5.997,7.977,5.302
		c1.156-0.664-0.106-2.228-0.868-2.788c-0.664-0.488-1.419-0.875-2.182-1.184C252.106,26.34,250.113,25.635,248.595,25.585z"/>
</g>
<g class="st0">
	<g>
		<path class="st1" d="M98.812,22.693c-0.508,0.879-4.825-3.983-4.792-6.609c0.528-2.202,2.01-4.802,3.848-6.102
			c0.337-0.243,0.772-0.477,1.12-0.342c0.469,0.181,0.371,0.832,0.175,1.322c-0.601,1.482-1.555,2.924-2.774,4.12
			c1.015-0.914,2.417-1.354,3.675-1.246c0.313,0.027,0.65,0.109,0.773,0.368c0.183,0.383-0.21,0.874-0.597,1.19
			c-1.011,0.821-2.256,1.363-3.505,1.456c1.471,0.035,2.815,0.769,3.544,1.919c0.123,0.195,0.233,0.43,0.155,0.671
			c-0.115,0.354-0.551,0.506-0.915,0.542c-0.944,0.095-1.888-0.159-2.618-0.718C97.722,20.252,99.283,21.909,98.812,22.693z"/>
	</g>
	<g>
		<path class="st1" d="M89.435,10.355c-0.146,0.043-0.098,0.898,0.906,1.564c0.485,0.304,1.177,0.502,1.968,0.303
			c0.802-0.179,1.638-0.983,1.975-2.105c0.348-1.12,0.331-2.511-0.228-3.872C93.5,4.911,92.5,3.851,91.372,3.236
			c-1.131-0.618-2.445-0.863-3.776-0.451c-0.662,0.21-1.341,0.607-1.905,1.258c-0.568,0.633-0.966,1.489-1.197,2.352
			c-0.435,1.754-0.281,3.381-0.008,4.823c0.301,1.422,0.716,2.708,1.229,3.897c1.014,2.376,2.391,4.235,3.705,5.571
			c2.698,2.663,4.949,3.243,5.066,2.892c0.196-0.424-1.612-1.694-3.65-4.412c-1-1.367-2.046-3.101-2.82-5.187
			c-0.749-2.031-1.438-4.665-0.997-6.518c0.228-0.879,0.653-1.386,1.349-1.642c0.689-0.253,1.506-0.183,2.201,0.135
			c1.454,0.623,2.119,2.125,1.9,3.354c-0.106,0.589-0.348,0.987-0.706,1.207c-0.363,0.228-0.787,0.279-1.12,0.233
			C89.961,10.663,89.604,10.235,89.435,10.355z"/>
	</g>
	<path class="st1" d="M93.129,36.49c0.091-6.158-5.462-10.736-10.541-10.817c-0.907-0.014-1.119,0.379-1.979,1.422
		c-0.981,1.19-2.066,2.234-3.229,3.201c-1.732,1.441-3.822,2.248-6.021,2.545c-2.757,0.372-4.114-1.591-3.076-4.156
		c0.6-1.483,1.697-2.495,2.943-3.391c1.647-1.185,3.543-1.937,5.519-2.362c1.396-0.3,2.128-0.378,3.536-0.483
		c0.358-3.149-0.11-6.865-2.506-8.966c-2.224-1.95-5.213-2.98-8.164-2.856c-5.71,0.24-11.073,3.418-15.714,6.404
		c-7.291,4.691-14.253,9.856-21.42,14.725c-3.846,2.613-7.827,4.959-12.294,6.403c-5.612,1.814-12.784,0.409-16.048-4.957
		c-2.638-4.338-2.678-10.378,0.297-14.545c1.549-2.169,3.535-3.621,6.026-4.636c2.047-0.834,4.399-0.936,6.552-0.503
		c4.399,0.886,7.437,4.883,7.077,9.31c-0.46,5.653-6.542,7.569-10.575,5.717c-1.774-0.814-2.852-2.742-2.595-4.642
		c0.272-2.012,2.32-2.901,3.982-1.77c1.406,0.957,0.783,3.601,2.97,3.623c2.411,0.024,3.699-1.991,3.256-4.213
		c-0.926-4.644-5.237-5.459-9.256-4.526c-2.195,0.51-3.933,1.909-5.134,3.791c-1.769,2.774-1.944,6.762-0.059,9.554
		c1.714,2.539,4.061,4.303,7.22,4.69c4.149,0.508,7.98-0.467,11.612-2.47c5.14-2.835,9.841-6.323,14.641-9.67
		c6.407-4.467,12.565-9.32,19.606-12.817c3.595-1.785,7.452-2.694,11.417-2.712c5.788-0.026,11.585,5.136,11.936,11.009
		c0.083,1.381-0.153,2.755-0.184,4.134c2.428,0.564,3.66,0.925,5.263,1.899c1.265,0.768,2.639,1.913,3.671,3.004
		c1.122,1.186,2.032,2.546,2.591,4.085c0.845,2.327,1.043,4.979,0.097,7.308c-0.936,2.306-2.599,3.978-5.364,4.419
		C90.124,42.454,93.062,41.039,93.129,36.49z M73.655,26.914c-0.762,0.309-1.518,0.697-2.182,1.184
		c-0.762,0.56-2.025,2.124-0.868,2.788c1.211,0.695,5.766-1.454,7.977-5.302C77.063,25.635,75.071,26.34,73.655,26.914z"/>
</g>
<g>
</g>
<g>
</g>
<g>
</g>
<g>
</g>
<g>
</g>
<g>
</g>
</svg>
