<?xml version="1.0" encoding="utf-8"?>
<!-- Generator: Adobe Illustrator 24.3.0, SVG Export Plug-In . SVG Version: 6.00 Build 0)  -->
<svg version="1.1" id="Layer_1" xmlns="http://www.w3.org/2000/svg" xmlns:xlink="http://www.w3.org/1999/xlink" x="0px" y="0px"
	 viewBox="0 0 320.333 88.846" style="enable-background:new 0 0 320.333 88.846;" xml:space="preserve">
<style type="text/css">
	.st0{fill:#FFFFFF;}
</style>
<path class="st0" d="M73.816,62.473c-0.533,4.09-1.065,8.194-1.594,12.311c-6.902,1.417-13.786,2.975-20.652,4.674
	c-4.086-0.007-8.165,0.005-12.238,0.034c0.527-23.123,1.057-46.178,1.589-69.165c10.042-0.314,20.085-0.602,30.129-0.865
	C71.972,27.259,72.894,44.929,73.816,62.473z M60.56,58.493c-0.209-9.789-0.417-19.599-0.626-29.431
	c-2.589-0.094-5.176-0.187-7.763-0.28c-0.212,10.459-0.425,20.928-0.638,31.406C54.54,59.602,57.549,59.037,60.56,58.493z"/>
<path class="st0" d="M114.683,70.53c-4.333,0.446-8.664,0.941-12.993,1.485c-0.039-6.369-0.079-12.74-0.118-19.115
	c-3.072-5.461-6.139-10.991-9.2-16.59c-0.206,12.1-0.412,29.84-0.619,41.95c-4.153,0.356-8.302,0.753-12.446,1.19
	c0.112-20.913,0.225-47.475,0.339-68.411c4.067-0.619,8.136-1.222,12.207-1.811c3.368,6.933,6.743,13.751,10.125,20.452
	c0.033-6.717,0.067-18.266,0.1-24.985c4.438-0.072,8.876-0.143,13.313-0.212C115.159,24.881,114.922,50.117,114.683,70.53z"/>
<path class="st0" d="M150.145,9.498c0.2,5.267,0.403,10.533,0.609,15.8c-4.673,9.252-9.37,18.546-14.088,27.956
	c-0.142,0.2,0,0.294,0.141,0.291c4.872-0.652,9.744-1.257,14.617-1.814c-0.007,6.145-0.015,12.29-0.022,18.436
	c-10.247-0.174-20.485-0.089-30.716,0.254c-0.067-4.764-0.131-9.531-0.192-14.3c5.239-10.083,10.451-19.966,15.639-29.738
	c-5.13,0.186-10.259,0.393-15.388,0.621c0.035-5.467,0.068-10.933,0.1-16.4C130.616,10.221,140.382,9.852,150.145,9.498z"/>
<path class="st0" d="M190.487,75.74c-4.243,0.034-8.488,0.111-12.736,0.23c-0.25-4.058-0.5-12.946-0.749-17
	c-3.367,0.305-6.736,0.632-10.105,0.98c-0.112,3.479-0.225,6.958-0.338,10.437c-4.061-0.155-8.122-0.268-12.184-0.339
	c0.575-11.639,1.146-23.276,1.714-34.91c2.983-8.422,5.953-16.838,8.908-25.249l12.33-0.682c3.46,7.742,6.933,15.538,10.419,23.387
	C188.655,45.337,189.568,62.939,190.487,75.74z M176.039,44.748c-0.149-2.646-0.299-5.292-0.448-7.937
	c-1.326-3.77-2.649-7.532-3.97-11.285c-1.255,3.673-2.514,7.343-3.775,11.01c-0.159,2.927-0.318,5.854-0.478,8.78
	C170.259,45.117,173.149,44.927,176.039,44.748z"/>
<path class="st0" d="M208.224,53.996c4.32,0.093,8.636,0.217,12.949,0.371c-0.059,6.435-0.117,12.867-0.176,19.294
	c-8.883-1.255-17.781-2.298-26.695-3.129c0.078-2.574,0.156-5.149,0.235-7.724c0,0.006,0.043-54.54,0.028-56.928
	c4.763-0.292,9.525-0.589,14.286-0.89C208.644,20.003,208.433,39.023,208.224,53.996z"/>
<path class="st0" d="M239.395,22.823c0.311,21.866,0.622,30.054,0.933,51.945c-4.653-0.179-9.312-0.316-13.978-0.409
	c-0.367-21.487-0.733-29.265-1.1-50.715C229.966,23.377,234.681,23.104,239.395,22.823z"/>
<path class="st0" d="M277.242,18.329c-3.682-0.291-7.366,0.235-11.051-0.032c0.64,16.765,1.277,44.868,1.913,61.763
	c-4.551-0.505-9.11-0.968-13.679-1.389c-0.113-16.412-0.226-44.1-0.339-60.527c-3.36,0.025-25.242,0.859-28.6,0.893
	c-0.109-6.273-0.219-9.322-0.328-15.59c10.945-0.33,40.415-0.686,51.364-1.075C276.762,9.291,277.002,11.389,277.242,18.329z"/>
<path class="st0" d="M7.163,1.625c8.607-0.294,17.215-0.567,25.824-0.82l-0.147,22.1c-5.905,0.482-11.805,0.994-17.7,1.536
	l-0.124,35.776c2.361-0.637,4.724-1.259,7.091-1.868c-0.067-6.872-0.133-13.75-0.2-20.633c4.451-0.688,8.907-1.347,13.368-1.977
	c-0.573,14.549-1.143,29.154-1.711,43.813c-10.739,2.771-21.416,5.869-32.031,9.293C1.032,65.249,0.521,41.54,0,17.717
	C2.378,12.235,4.766,6.871,7.163,1.625z"/>
<path class="st0" d="M320.333,72.501c-0.538,5.4-1.074,10.773-1.608,16.118c-7.526-1.425-15.082-2.753-22.667-3.984
	c-4.533-1.97-9.076-3.859-13.628-5.667c0.2-25.962,0.403-52.002,0.61-78.12C294.245,0.589,305.451,0.307,316.657,0
	C317.903,23.909,319.128,48.076,320.333,72.501z M305.681,62.284c-0.376-12.551-0.754-25.066-1.135-37.544
	c-2.88-0.487-5.762-0.962-8.647-1.423c-0.067,12.654-0.131,25.295-0.194,37.922C299.034,61.575,302.36,61.923,305.681,62.284z"/>
</svg>
