<?xml version="1.0" encoding="utf-8"?>
<!-- Generator: Adobe Illustrator 24.3.0, SVG Export Plug-In . SVG Version: 6.00 Build 0)  -->
<svg version="1.1" id="Layer_1" xmlns="http://www.w3.org/2000/svg" xmlns:xlink="http://www.w3.org/1999/xlink" x="0px" y="0px"
	 viewBox="0 0 325 239.294" style="enable-background:new 0 0 325 239.294;" xml:space="preserve">
<style type="text/css">
	.st0{fill:#BF6E00;}
	.st1{fill:#9D5A00;}
	.st2{fill:#5DC07E;}
	.st3{fill:#0F9200;}
	.st4{fill:#EFA962;}
	.st5{fill:#8E0909;}
	.st6{fill:#F6CAA0;}
	.st7{fill:#D03232;}
	.st8{fill:#FFC05C;}
	.st9{fill:#F99246;}
	.st10{fill:#ED954C;}
	.st11{fill:#F9BA8F;}
	.st12{fill:#F4A269;}
	.st13{fill:#E39056;}
	.st14{fill:#F79145;}
	.st15{fill:#72B342;}
	.st16{fill:url(#SVGID_1_);}
	.st17{fill:url(#SVGID_2_);}
	.st18{stroke:#1D1D1B;stroke-width:0.1777;stroke-miterlimit:10;}
</style>
<g>
	<g>
		<path class="st0" d="M179.839,34.962c-3.861-10.621-8.358-21.439-16.214-30.409c-1.014-1.157-2.239-2.368-3.719-2.601
			c-1.764-0.279-3.109,0.929-4.16,2.083c-9.18,10.084-15.488,22.341-21.247,34.73c-8.133,17.496-15.322,35.477-22.508,53.449
			l89.086,17.484C195.234,84.674,188.805,59.628,179.839,34.962z"/>
	</g>
	<g>
		<path class="st1" d="M155.565,4.554c7.855,8.97,12.353,19.787,16.214,30.409c8.768,24.121,15.105,48.605,20.845,73.077
			l8.453,1.659c-5.843-25.025-12.272-50.071-21.238-74.736c-3.861-10.621-8.358-21.439-16.214-30.409
			c-1.014-1.157-2.239-2.368-3.719-2.601c-1.764-0.279-3.109,0.929-4.16,2.083c-0.109,0.12-0.207,0.249-0.316,0.37
			C155.475,4.455,155.521,4.504,155.565,4.554z"/>
	</g>
	<g>
		<g>
			<path class="st2" d="M181.289,39.099c-0.485-1.379-0.949-2.76-1.45-4.137c-0.325-0.895-0.657-1.791-0.993-2.688
				c-11.036-3.138-22.73-3.978-34.079-2.275c-2.252,0.338-4.487,0.781-6.699,1.314c-1.223,2.468-2.408,4.956-3.567,7.452
				c-0.967,2.081-1.919,4.17-2.861,6.263c5.369-2.249,10.941-4.011,16.642-5.194C159.119,37.585,170.354,37.386,181.289,39.099z"/>
		</g>
		<g>
			<path class="st3" d="M155.138,49.698c10.388-0.736,20.921,0.482,30.88,3.519c-1.489-4.718-3.078-9.422-4.729-14.117
				c-10.935-1.714-22.17-1.514-33.008,0.735c-5.702,1.183-11.273,2.945-16.642,5.194c-1.729,3.842-3.413,7.706-5.073,11.583
				C135.65,52.797,145.309,50.394,155.138,49.698z"/>
		</g>
	</g>
	<path class="st4" d="M134.718,193.292c30.738,3.006,90.177-1.2,115.85-32.83c25.673-31.629,16.298-64.357,2.753-81.522
		s-52.598-38.768-123.065-27.562C59.79,62.584,52.21,119.709,58.758,146.41C65.307,173.112,102.569,190.148,134.718,193.292z"/>
	<path class="st0" d="M139.125,198.037c28.146,2.836,82.545-0.83,105.953-29.639c23.408-28.809,14.73-58.724,2.28-74.439
		c-12.449-15.716-48.263-35.559-112.736-25.533S63.379,130.596,69.452,155C75.525,179.404,109.686,195.07,139.125,198.037z"/>
	<g>
		<path class="st5" d="M253.321,78.94c-13.544-17.166-52.598-38.768-123.065-27.562C59.79,62.584,52.21,119.709,58.758,146.41
			c0.717,2.926,1.823,5.728,3.231,8.416c0.896-2.775,2.256-5.504,0.472-7.54c-0.886-1.012-2.397-1.493-2.897-2.741
			c-1.037-2.584,3.081-4.319,3.778-7.014c0.876-3.391-3.811-7.48-1.23-9.847c0.991-0.908,2.592-0.83,3.629-1.685
			c2.043-1.685,0.356-4.868-0.35-7.421c-1.021-3.691,0.75-7.967,4.082-9.856c1.298-0.736,2.925-1.278,3.463-2.67
			c0.82-2.122-1.57-4.326-1.194-6.57c0.56-3.34,5.65-2.88,8.339-4.939c3.412-2.612,1.938-8.406,4.63-11.755
			c3.132-3.896,10.484-2.832,12.642-7.341c0.995-2.08,0.403-4.614,1.212-6.773c1.326-3.538,5.766-4.717,9.544-4.636
			c3.778,0.081,7.751,0.878,11.203-0.659c4.503-2.005,6.91-7.505,11.643-8.881c3.889-1.13,7.903,0.922,11.896,1.596
			c4.668,0.788,9.64-0.417,13.43-3.254c0.953-0.714,1.911-1.559,3.095-1.689c1.927-0.213,3.443,1.487,5.021,2.615
			c4.055,2.898,9.617,2.234,14.412,0.877c3.258-0.923,6.988-2.049,9.824-0.198c1.253,0.817,2.112,2.109,3.245,3.086
			c3.941,3.4,9.938,2.258,14.896,0.674c1.238-0.396,2.566-0.81,3.814-0.444c2.69,0.788,3.165,4.364,4.935,6.538
			c4.401,5.404,15.026,0.657,19.193,6.243c2.053,2.752,1.441,6.92,3.701,9.504c3.294,3.766,10.438,1.802,13.485,5.771
			c2.594,3.378,0.364,8.83,2.967,12.202c2.66,3.446,9.594,3.835,9.331,8.181c-0.101,1.663-1.418,2.986-1.938,4.569
			c-1.704,5.189,5.463,10.325,3.608,15.463c-0.809,2.24-3.209,3.768-3.539,6.127c-0.221,1.579,0.515,3.208,1.285,4.781
			C271.36,113.654,263.529,91.877,253.321,78.94z"/>
	</g>
	<g>
		<path class="st1" d="M235.712,143.365c-1.112-24.192-16.581-46.837-38.057-58.029c-21.477-11.192-48.095-11.147-70.216-1.291
			c-11.344,5.055-21.675,12.628-29.21,22.5c-12.937,16.949-16.693,40.499-9.671,60.631c2.488,7.134,6.309,13.758,11.117,19.576
			c12.133,6.07,26.262,9.954,39.449,11.283c15.476,1.559,40.22-1.269,62.73-7.97c19.918-5.93,34.114-24.005,33.911-44.786
			C235.76,144.646,235.742,144.008,235.712,143.365z"/>
	</g>
	<g>
		<path class="st4" d="M262.012,93.988c0.113,0.277,0.226,0.554,0.335,0.833C262.238,94.542,262.125,94.265,262.012,93.988z"/>
		<path class="st4" d="M264.384,100.892c0.097,0.345,0.193,0.691,0.285,1.04C264.577,101.583,264.481,101.237,264.384,100.892z"/>
		<path class="st4" d="M265.62,106.092c0.074,0.385,0.14,0.773,0.208,1.161C265.76,106.865,265.694,106.476,265.62,106.092z"/>
		<path class="st4" d="M263.753,98.777c0.101,0.317,0.196,0.637,0.293,0.957C263.949,99.414,263.854,99.093,263.753,98.777z"/>
		<path class="st4" d="M262.854,96.165c0.109,0.296,0.218,0.592,0.323,0.891C263.072,96.756,262.963,96.461,262.854,96.165z"/>
		<path class="st4" d="M266.734,118.6c-0.011,0.878-0.042,1.761-0.093,2.65C266.691,120.361,266.723,119.478,266.734,118.6z"/>
		<path class="st4" d="M266.006,108.33c0.063,0.407,0.124,0.816,0.18,1.227C266.13,109.146,266.069,108.737,266.006,108.33z"/>
		<path class="st4" d="M266.721,116.236c0.012,0.454,0.02,0.91,0.021,1.367C266.741,117.145,266.733,116.69,266.721,116.236z"/>
		<path class="st4" d="M266.62,113.885c0.028,0.441,0.046,0.885,0.065,1.329C266.666,114.77,266.648,114.325,266.62,113.885z"/>
		<path class="st4" d="M266.317,110.622c0.083,0.704,0.154,1.414,0.213,2.128C266.47,112.036,266.4,111.326,266.317,110.622z"/>
		<path class="st4" d="M264.967,103.121c0.121,0.497,0.237,0.996,0.346,1.499C265.204,104.117,265.088,103.618,264.967,103.121z"/>
		<path class="st4" d="M59.907,150.114c-0.174-0.474-0.348-0.948-0.502-1.429C59.557,149.166,59.734,149.639,59.907,150.114z"/>
		<path class="st4" d="M254.451,80.427c0.112,0.152,0.223,0.307,0.334,0.461C254.674,80.734,254.563,80.579,254.451,80.427z"/>
		<path class="st4" d="M255.593,82.036c0.113,0.164,0.226,0.328,0.338,0.495C255.819,82.364,255.706,82.201,255.593,82.036z"/>
		<path class="st4" d="M60.936,152.657c-0.274-0.607-0.533-1.22-0.774-1.839C60.401,151.438,60.664,152.049,60.936,152.657z"/>
		<path class="st4" d="M256.913,84.038c0.031,0.05,0.064,0.097,0.095,0.147C256.977,84.135,256.945,84.088,256.913,84.038z"/>
		<path class="st4" d="M259.036,87.681c0.115,0.213,0.231,0.426,0.344,0.642C259.266,88.107,259.151,87.894,259.036,87.681z"/>
		<path class="st4" d="M260.129,89.796c0.065,0.132,0.133,0.26,0.197,0.393C260.261,90.056,260.194,89.928,260.129,89.796z"/>
		<path class="st4" d="M261.172,92.015c0.111,0.247,0.217,0.498,0.325,0.748C261.389,92.513,261.283,92.262,261.172,92.015z"/>
		<path class="st4" d="M258.023,85.872c0.111,0.191,0.221,0.386,0.331,0.58C258.244,86.258,258.135,86.063,258.023,85.872z"/>
		<path class="st4" d="M266.369,124.529c-0.053,0.481-0.112,0.962-0.177,1.446C266.257,125.492,266.316,125.01,266.369,124.529z"/>
		<path class="st4" d="M264.062,135.692c-0.146,0.481-0.289,0.962-0.448,1.445C263.773,136.655,263.915,136.174,264.062,135.692z"/>
		<path class="st4" d="M266.042,126.988c-0.145,0.953-0.315,1.91-0.508,2.872C265.728,128.898,265.897,127.94,266.042,126.988z"/>
		<path class="st4" d="M265.388,130.603c-0.104,0.485-0.223,0.972-0.34,1.459C265.165,131.575,265.284,131.088,265.388,130.603z"/>
		<path class="st6" d="M254.867,98.018c-2.603-3.372-0.373-8.824-2.967-12.202c-3.047-3.969-10.191-2.005-13.485-5.771
			c-2.26-2.584-1.649-6.752-3.701-9.504c-4.167-5.586-14.792-0.839-19.193-6.243c-1.77-2.174-2.244-5.75-4.935-6.538
			c-1.248-0.366-2.575,0.049-3.814,0.444c-4.958,1.584-10.955,2.726-14.896-0.674c-1.133-0.977-1.992-2.269-3.245-3.086
			c-2.836-1.851-6.566-0.725-9.824,0.198c-4.795,1.358-10.357,2.021-14.412-0.877c-1.578-1.128-3.094-2.827-5.021-2.615
			c-1.184,0.131-2.141,0.975-3.095,1.689c-3.79,2.837-8.761,4.042-13.43,3.254c-3.993-0.674-8.007-2.726-11.896-1.596
			c-2.26,0.657-3.988,2.254-5.669,3.962c0.702,0.216,1.407,0.418,2.116,0.587c8.157,1.942,16.676,1.239,25.045,0.715
			c17.8-1.114,36.007-1.316,53.067,3.884c15.795,4.814,30.145,14.271,40.799,26.887c4.946,5.857,9.223,12.479,15.503,16.875
			c0.517,0.362,1.061,0.697,1.615,1.018c0.387-0.709,0.718-1.429,0.767-2.228C264.46,101.853,257.527,101.464,254.867,98.018z"/>
		<path class="st4" d="M61.99,154.826c-0.342-0.653-0.664-1.313-0.969-1.98C61.323,153.514,61.648,154.173,61.99,154.826z"/>
		<path class="st4" d="M264.785,133.133c-0.125,0.484-0.256,0.968-0.394,1.454C264.529,134.101,264.66,133.616,264.785,133.133z"/>
		<path class="st4" d="M266.596,122.083c-0.033,0.475-0.08,0.954-0.125,1.433C266.516,123.037,266.563,122.559,266.596,122.083z"/>
		<path class="st5" d="M257.008,84.185c0.345,0.551,0.682,1.115,1.015,1.687C257.69,85.301,257.353,84.736,257.008,84.185z"/>
		<path class="st5" d="M266.641,121.25c-0.016,0.278-0.026,0.554-0.045,0.833C266.616,121.804,266.625,121.528,266.641,121.25z"/>
		<path class="st5" d="M255.931,82.531c0.331,0.493,0.66,0.995,0.982,1.508C256.59,83.526,256.263,83.024,255.931,82.531z"/>
		<path class="st5" d="M258.354,86.452c0.23,0.405,0.457,0.815,0.681,1.229C258.812,87.266,258.585,86.857,258.354,86.452z"/>
		<path class="st5" d="M265.827,107.253c0.062,0.358,0.122,0.717,0.178,1.077C265.95,107.969,265.889,107.611,265.827,107.253z"/>
		<path class="st5" d="M266.685,115.214c0.014,0.34,0.028,0.68,0.037,1.022C266.713,115.894,266.699,115.554,266.685,115.214z"/>
		<path class="st5" d="M266.317,110.622c-0.032-0.273-0.059-0.548-0.095-0.819c-0.002-0.001-0.004-0.002-0.006-0.003
			C266.252,110.073,266.284,110.348,266.317,110.622z"/>
		<polygon class="st5" points="61.99,154.827 61.99,154.827 61.99,154.826 		"/>
		<path class="st5" d="M60.162,150.819c-0.09-0.233-0.17-0.47-0.255-0.705C59.993,150.348,60.071,150.586,60.162,150.819z"/>
		<path class="st5" d="M61.02,152.847c-0.029-0.063-0.056-0.126-0.084-0.19C60.965,152.72,60.991,152.784,61.02,152.847z"/>
		<path class="st5" d="M259.379,88.323c0.255,0.485,0.504,0.976,0.749,1.473C259.883,89.299,259.634,88.807,259.379,88.323z"/>
		<path class="st5" d="M253.321,78.94c0.38,0.482,0.756,0.981,1.13,1.487C254.078,79.921,253.702,79.422,253.321,78.94z"/>
		<path class="st5" d="M59.404,148.685c-0.238-0.751-0.458-1.508-0.646-2.275C58.947,147.177,59.165,147.935,59.404,148.685z"/>
		<path class="st5" d="M266.222,109.803c-0.011-0.083-0.025-0.164-0.036-0.246c0.011,0.081,0.019,0.163,0.03,0.244
			C266.218,109.801,266.22,109.802,266.222,109.803z"/>
		<path class="st5" d="M254.785,80.889c0.272,0.376,0.541,0.759,0.808,1.148C255.326,81.647,255.057,81.265,254.785,80.889z"/>
		<polygon class="st5" points="263.614,137.137 263.614,137.137 263.614,137.137 		"/>
		<path class="st5" d="M265.534,129.86c-0.05,0.248-0.093,0.495-0.146,0.744C265.441,130.355,265.484,130.108,265.534,129.86z"/>
		<path class="st5" d="M266.529,112.75c0.031,0.378,0.066,0.754,0.09,1.135C266.595,113.504,266.561,113.128,266.529,112.75z"/>
		<path class="st5" d="M264.046,99.734c0.116,0.384,0.229,0.77,0.339,1.158C264.275,100.503,264.162,100.118,264.046,99.734z"/>
		<path class="st5" d="M264.669,101.932c0.104,0.394,0.201,0.792,0.298,1.19C264.87,102.723,264.773,102.325,264.669,101.932z"/>
		<path class="st5" d="M266.192,125.975c-0.046,0.337-0.098,0.675-0.15,1.013C266.094,126.65,266.146,126.312,266.192,125.975z"/>
		<path class="st5" d="M260.326,90.189c0.29,0.599,0.571,1.209,0.847,1.825C260.897,91.398,260.616,90.788,260.326,90.189z"/>
		<path class="st5" d="M265.313,104.62c0.106,0.488,0.211,0.977,0.306,1.472C265.524,105.597,265.42,105.108,265.313,104.62z"/>
		<path class="st5" d="M266.471,123.516c-0.032,0.337-0.064,0.675-0.102,1.014C266.407,124.191,266.439,123.853,266.471,123.516z"/>
		<path class="st5" d="M266.743,117.603c0.001,0.331-0.004,0.664-0.009,0.997C266.738,118.267,266.744,117.934,266.743,117.603z"/>
		<path class="st5" d="M261.497,92.763c0.175,0.405,0.347,0.813,0.515,1.225C261.844,93.576,261.672,93.168,261.497,92.763z"/>
		<path class="st5" d="M264.391,134.586c-0.104,0.368-0.217,0.737-0.329,1.106C264.174,135.323,264.286,134.954,264.391,134.586z"/>
		<path class="st5" d="M265.048,132.062c-0.085,0.356-0.171,0.713-0.264,1.07C264.877,132.775,264.963,132.419,265.048,132.062z"/>
		<path class="st5" d="M262.347,94.821c0.174,0.443,0.341,0.893,0.507,1.344C262.689,95.714,262.521,95.265,262.347,94.821z"/>
		<path class="st5" d="M263.177,97.056c0.199,0.568,0.391,1.142,0.576,1.721C263.568,98.197,263.376,97.624,263.177,97.056z"/>
		<path class="st7" d="M125.286,58.461c1.68-1.708,3.409-3.305,5.669-3.962c3.889-1.13,7.903,0.922,11.896,1.596
			c4.668,0.788,9.64-0.417,13.43-3.254c0.953-0.714,1.911-1.559,3.095-1.689c1.927-0.213,3.443,1.487,5.021,2.615
			c4.055,2.898,9.617,2.234,14.412,0.877c3.258-0.923,6.988-2.049,9.824-0.198c1.253,0.817,2.112,2.109,3.245,3.086
			c3.941,3.4,9.938,2.258,14.896,0.674c1.238-0.396,2.566-0.81,3.814-0.444c2.69,0.788,3.165,4.364,4.935,6.538
			c4.401,5.404,15.026,0.657,19.193,6.243c2.053,2.752,1.441,6.92,3.701,9.504c3.294,3.766,10.438,1.802,13.485,5.771
			c2.594,3.378,0.364,8.83,2.967,12.202c2.66,3.446,9.594,3.835,9.331,8.181c-0.048,0.799-0.38,1.52-0.767,2.228
			c0.891,0.517,1.823,0.976,2.785,1.373c-0.011-0.081-0.019-0.163-0.03-0.244c-0.056-0.411-0.117-0.819-0.18-1.227
			c-0.056-0.361-0.116-0.719-0.178-1.077c-0.067-0.388-0.133-0.777-0.208-1.161c-0.095-0.494-0.2-0.983-0.306-1.472
			c-0.109-0.503-0.226-1.002-0.346-1.499c-0.097-0.398-0.194-0.796-0.298-1.19c-0.092-0.349-0.188-0.695-0.285-1.04
			c-0.109-0.388-0.223-0.774-0.339-1.158c-0.097-0.32-0.192-0.641-0.293-0.957c-0.185-0.579-0.377-1.153-0.576-1.721
			c-0.105-0.299-0.214-0.595-0.323-0.891c-0.165-0.451-0.333-0.9-0.507-1.344c-0.11-0.28-0.222-0.557-0.335-0.833
			c-0.168-0.412-0.34-0.82-0.515-1.225c-0.108-0.25-0.215-0.501-0.325-0.748c-0.276-0.616-0.556-1.227-0.847-1.825
			c-0.064-0.133-0.132-0.261-0.197-0.393c-0.245-0.497-0.495-0.989-0.749-1.473c-0.113-0.216-0.229-0.429-0.344-0.642
			c-0.224-0.415-0.451-0.824-0.681-1.229c-0.11-0.194-0.22-0.388-0.331-0.58c-0.333-0.572-0.671-1.136-1.015-1.687
			c-0.031-0.05-0.064-0.097-0.095-0.147c-0.323-0.512-0.651-1.014-0.982-1.508c-0.112-0.167-0.225-0.33-0.338-0.495
			c-0.267-0.389-0.536-0.771-0.808-1.148c-0.111-0.154-0.222-0.309-0.334-0.461c-0.373-0.506-0.749-1.005-1.13-1.487
			c-13.544-17.166-52.598-38.768-123.065-27.562c-4.825,0.767-9.345,1.757-13.596,2.931
			C119.272,56.126,122.229,57.518,125.286,58.461z"/>
	</g>
	<g>
		<path class="st8" d="M134.349,204.328c-0.877,1.763-1.416,3.71-1.661,5.708c-0.316,2.58-2.161,9.612-4.372,17.441
			c-24.963,1.804-77.192-14.005-105.203-37.918c12.579-4.73,24.098-18.949,25.656-28.479
			C69.347,183.392,111.547,199.793,134.349,204.328z"/>
		<path class="st9" d="M75.484,205.461c-7.842-1.489-15.203-0.089-20.446,3.917c13.887,6.515,28.836,11.551,42.375,14.667
			C94.531,214.647,86.249,207.504,75.484,205.461z"/>
		<path class="st10" d="M23.112,189.558c12.579-4.73,24.098-18.949,25.656-28.479c-0.045-0.049-0.078-0.086-0.107-0.122
			C40.497,164.299,22.205,188.784,23.112,189.558z"/>
		<path class="st11" d="M40.787,159.662c-0.082,1.061-0.224,1.988-0.428,2.854c0,0.021,0,0.05-0.01,0.072
			c-1.009,5.708-3.894,9.143-7.533,10.987c-0.203,0.113-0.407,0.214-0.621,0.296c-0.755,0.367-1.601,0.663-2.538,0.917l0.479-0.173
			c-0.861,0.335-0.249,0.316-3.078,0.724c-5.723,0.826-9.543-2.542-14.405-5.071C9.736,168.761,0,162.255,0,162.255l2.818-5.73
			c0,0,3.65,0.937,4.414,1.447c-2.391-1.8-6.198-5.224-6.198-5.224l3.061-5.642c0,0,3.733,1.241,5.94,2.652
			c-2.491-2.04-5.688-6.547-5.688-6.547l4.06-3.582c0,0,4.281,2.164,6.449,3.801c-0.891-0.994-4.185-5.22-4.185-5.22l3.873-3.809
			c0,0,7.914,7.306,13.246,12.188l3.344,2.63c0.356,0.153,0.733,0.305,1.11,0.448c-0.362-2.493-0.032-8.137-0.032-8.137l7.843,3.656
			c0,0,0.749,6.192,0.812,8.199C40.951,155.974,40.941,157.981,40.787,159.662z"/>
		<path class="st12" d="M47.504,165.432c-2.171,5.433-6.645,11.579-12.19,16.482c-1.825-2.64-5.004-4.955-8.256-6.575
			c1.05-0.132,2.079-0.367,3.078-0.724l-0.479,0.173c0.938-0.254,1.783-0.55,2.538-0.917c0.214-0.082,0.418-0.183,0.621-0.296
			c3.639-1.844,6.524-5.28,7.533-10.987c0.01-0.021,0.01-0.05,0.01-0.072c0.204-0.866,0.346-1.794,0.428-2.854
			c0.765,1.121,1.58,2.181,2.548,3.15C44.456,163.923,45.903,164.769,47.504,165.432z"/>
		<g>
			<g>
				<g>
					<path class="st13" d="M19.137,144.528c0.036,0.062-1.029,0.657-2.625,1.793c-1.575,1.149-3.685,2.9-5.362,5.368
						c-1.679,2.462-2.55,5.059-3.039,6.948c-0.481,1.899-0.651,3.108-0.72,3.097c-0.026-0.004-0.003-0.308,0.061-0.856
						c0.056-0.549,0.19-1.338,0.397-2.305c0.425-1.921,1.27-4.583,2.986-7.1c1.715-2.522,3.895-4.273,5.524-5.374
						c0.829-0.539,1.511-0.955,2.005-1.204C18.849,144.637,19.124,144.505,19.137,144.528z"/>
				</g>
			</g>
		</g>
		<g>
			<g>
				<g>
					<path class="st14" d="M50.763,206.551c0.114,0.085,0.143,0.247,0.064,0.362c-0.079,0.114-0.24,0.145-0.361,0.07
						c-0.121-0.076-0.149-0.238-0.064-0.362C50.488,206.497,50.649,206.465,50.763,206.551z"/>
				</g>
				<g>
					<path class="st14" d="M52.23,205.009c0.091,0.11-0.004,0.357-0.212,0.552c-0.208,0.194-0.461,0.273-0.565,0.175
						s-0.009-0.345,0.212-0.551C51.887,204.977,52.14,204.899,52.23,205.009z"/>
				</g>
				<g>
					<path class="st14" d="M53.974,203.782c0.072,0.123-0.066,0.349-0.309,0.506c-0.242,0.156-0.506,0.188-0.589,0.072
						c-0.082-0.116,0.056-0.343,0.309-0.506C53.639,203.691,53.902,203.659,53.974,203.782z"/>
				</g>
				<g>
					<path class="st14" d="M55.872,202.81c0.057,0.13-0.109,0.337-0.37,0.461c-0.261,0.124-0.526,0.122-0.592-0.004
						s0.101-0.333,0.37-0.461C55.55,202.678,55.815,202.68,55.872,202.81z"/>
				</g>
				<g>
					<path class="st14" d="M57.864,202.039c0.045,0.135-0.141,0.325-0.415,0.424c-0.274,0.099-0.538,0.072-0.59-0.061
						c-0.052-0.133,0.134-0.323,0.415-0.424C57.554,201.877,57.819,201.904,57.864,202.039z"/>
				</g>
				<g>
					<path class="st14" d="M59.913,201.433c0.035,0.138-0.165,0.313-0.447,0.391c-0.281,0.078-0.543,0.03-0.584-0.106
						c-0.041-0.136,0.159-0.311,0.446-0.391C59.617,201.247,59.878,201.295,59.913,201.433z"/>
				</g>
				<g>
					<path class="st14" d="M61.999,200.966c0.026,0.14-0.184,0.302-0.471,0.361c-0.286,0.059-0.544-0.005-0.576-0.144
						c-0.031-0.139,0.179-0.301,0.471-0.361C61.715,200.761,61.973,200.826,61.999,200.966z"/>
				</g>
				<g>
					<path class="st14" d="M64.109,200.622c0.019,0.141-0.201,0.29-0.491,0.334c-0.29,0.043-0.543-0.036-0.567-0.177
						s0.197-0.29,0.491-0.333C63.837,200.402,64.09,200.481,64.109,200.622z"/>
				</g>
				<g>
					<path class="st14" d="M66.235,200.393c0.011,0.142-0.216,0.279-0.508,0.307c-0.292,0.027-0.541-0.065-0.556-0.206
						c-0.016-0.141,0.212-0.279,0.508-0.307C65.974,200.159,66.224,200.251,66.235,200.393z"/>
				</g>
				<g>
					<path class="st14" d="M68.37,200.277c0.004,0.142-0.231,0.268-0.524,0.28c-0.293,0.012-0.537-0.093-0.545-0.235
						c-0.008-0.142,0.226-0.267,0.524-0.28C68.123,200.029,68.366,200.134,68.37,200.277z"/>
				</g>
				<g>
					<path class="st14" d="M70.509,200.275c-0.004,0.142-0.245,0.255-0.538,0.251c-0.293-0.004-0.531-0.123-0.531-0.265
						c0-0.142,0.241-0.255,0.538-0.251C70.276,200.014,70.513,200.133,70.509,200.275z"/>
				</g>
				<g>
					<path class="st14" d="M72.644,200.403c-0.014,0.142-0.261,0.239-0.553,0.217c-0.291-0.022-0.521-0.155-0.514-0.297
						c0.008-0.142,0.256-0.239,0.553-0.217C72.428,200.128,72.658,200.261,72.644,200.403z"/>
				</g>
				<g>
					<path class="st14" d="M74.767,200.671c-0.021,0.141-0.275,0.221-0.566,0.18c-0.291-0.041-0.512-0.189-0.494-0.33
						c0.019-0.142,0.272-0.222,0.566-0.181C74.567,200.383,74.788,200.531,74.767,200.671z"/>
				</g>
				<g>
					<path class="st14" d="M76.878,201.027c-0.027,0.14-0.283,0.211-0.572,0.16c-0.289-0.052-0.505-0.207-0.482-0.348
						c0.023-0.14,0.28-0.212,0.572-0.16C76.689,200.732,76.905,200.888,76.878,201.027z"/>
				</g>
				<g>
					<path class="st14" d="M78.973,201.467c-0.033,0.139-0.291,0.2-0.578,0.136c-0.287-0.063-0.496-0.228-0.467-0.367
						c0.029-0.139,0.288-0.2,0.578-0.136C78.796,201.164,79.005,201.328,78.973,201.467z"/>
				</g>
				<g>
					<path class="st14" d="M81.044,202.002c-0.039,0.137-0.301,0.186-0.584,0.109c-0.283-0.077-0.484-0.251-0.449-0.389
						s0.297-0.187,0.584-0.109C80.883,201.691,81.084,201.865,81.044,202.002z"/>
				</g>
				<g>
					<path class="st14" d="M83.085,202.644c-0.047,0.134-0.31,0.169-0.589,0.077c-0.278-0.092-0.469-0.276-0.427-0.412
						c0.042-0.136,0.306-0.17,0.589-0.077C82.94,202.325,83.131,202.509,83.085,202.644z"/>
				</g>
				<g>
					<path class="st14" d="M85.082,203.405c-0.055,0.131-0.32,0.15-0.592,0.041c-0.271-0.108-0.451-0.304-0.401-0.438
						s0.315-0.152,0.592-0.041C84.958,203.078,85.138,203.274,85.082,203.405z"/>
				</g>
				<g>
					<path class="st14" d="M87.023,204.298c-0.065,0.127-0.33,0.127-0.593,0c-0.263-0.127-0.428-0.335-0.369-0.464
						c0.059-0.13,0.325-0.13,0.593,0C86.922,203.963,87.087,204.171,87.023,204.298z"/>
				</g>
				<g>
					<path class="st14" d="M88.89,205.331c-0.074,0.121-0.339,0.102-0.591-0.044c-0.252-0.146-0.401-0.366-0.332-0.49
						c0.068-0.125,0.333-0.105,0.591,0.044C88.816,204.99,88.964,205.21,88.89,205.331z"/>
				</g>
				<g>
					<path class="st14" d="M90.663,206.51c-0.084,0.115-0.346,0.074-0.584-0.092c-0.238-0.166-0.368-0.396-0.29-0.515
						c0.078-0.119,0.34-0.078,0.584,0.092C90.618,206.164,90.747,206.395,90.663,206.51z"/>
				</g>
				<g>
					<path class="st14" d="M92.334,207.841c-0.094,0.107-0.352,0.042-0.575-0.144c-0.224-0.186-0.333-0.428-0.245-0.54
						c0.088-0.112,0.346-0.047,0.575,0.144C92.318,207.493,92.428,207.735,92.334,207.841z"/>
				</g>
				<g>
					<path class="st14" d="M93.879,209.316c-0.103,0.098-0.354,0.011-0.56-0.195c-0.206-0.206-0.294-0.456-0.196-0.56
						c0.098-0.103,0.349-0.016,0.56,0.195C93.895,208.968,93.982,209.218,93.879,209.316z"/>
				</g>
				<g>
					<path class="st14" d="M95.286,210.923c-0.111,0.089-0.353-0.021-0.541-0.244c-0.187-0.223-0.252-0.481-0.145-0.575
						s0.349,0.015,0.54,0.244C95.333,210.577,95.397,210.834,95.286,210.923z"/>
				</g>
				<g>
					<path class="st14" d="M96.549,212.645c-0.118,0.079-0.35-0.051-0.518-0.289c-0.167-0.238-0.21-0.501-0.096-0.585
						c0.114-0.085,0.346,0.045,0.518,0.289C96.625,212.304,96.668,212.566,96.549,212.645z"/>
				</g>
				<g>
					<path class="st14" d="M97.668,214.465c-0.124,0.069-0.345-0.078-0.493-0.33c-0.148-0.251-0.17-0.516-0.049-0.591
						c0.121-0.075,0.342,0.073,0.493,0.33C97.771,214.131,97.792,214.396,97.668,214.465z"/>
				</g>
				<g>
					<path class="st14" d="M98.646,216.36c-0.129,0.06-0.338-0.102-0.467-0.363c-0.129-0.261-0.131-0.526-0.004-0.591
						c0.126-0.066,0.335,0.097,0.467,0.363C98.773,216.035,98.775,216.3,98.646,216.36z"/>
				</g>
				<g>
					<path class="st14" d="M99.494,218.316c-0.132,0.052-0.331-0.124-0.442-0.394c-0.112-0.269-0.097-0.534,0.034-0.591
						c0.13-0.057,0.329,0.119,0.442,0.394C99.641,217.999,99.626,218.263,99.494,218.316z"/>
				</g>
				<g>
					<path class="st14" d="M100.224,220.322c-0.135,0.045-0.323-0.143-0.419-0.42c-0.096-0.276-0.066-0.54,0.068-0.589
						c0.134-0.049,0.321,0.139,0.419,0.42C100.39,220.014,100.359,220.277,100.224,220.322z"/>
				</g>
				<g>
					<path class="st14" d="M100.847,222.366c-0.137,0.038-0.315-0.16-0.397-0.441c-0.082-0.281-0.038-0.543,0.098-0.585
						c0.136-0.042,0.314,0.156,0.397,0.441C101.028,222.066,100.984,222.328,100.847,222.366z"/>
				</g>
				<g>
					<path class="st14" d="M101.263,223.97c-0.138,0.033-0.279-0.054-0.314-0.195c-0.035-0.141,0.049-0.283,0.187-0.318
						c0.138-0.035,0.278,0.052,0.314,0.195C101.485,223.794,101.401,223.937,101.263,223.97z"/>
				</g>
			</g>
		</g>
	</g>
	<g>
		<path class="st8" d="M190.388,204.328c0.877,1.763,1.416,3.71,1.661,5.708c0.316,2.58,2.161,9.612,4.372,17.441
			c24.963,1.804,77.192-14.005,105.203-37.918c-12.579-4.73-24.098-18.949-25.656-28.479
			C255.39,183.392,213.19,199.793,190.388,204.328z"/>
		<path class="st9" d="M249.253,205.461c7.842-1.489,15.203-0.089,20.446,3.917c-13.887,6.515-28.836,11.551-42.375,14.667
			C230.205,214.647,238.488,207.504,249.253,205.461z"/>
		<path class="st10" d="M301.625,189.558c-12.579-4.73-24.098-18.949-25.656-28.479c0.045-0.049,0.078-0.086,0.107-0.122
			C284.24,164.299,302.532,188.784,301.625,189.558z"/>
		<path class="st11" d="M283.95,159.662c0.082,1.061,0.224,1.988,0.428,2.854c0,0.021,0,0.05,0.01,0.072
			c1.009,5.708,3.894,9.143,7.533,10.987c0.203,0.113,0.407,0.214,0.621,0.296c0.755,0.367,1.601,0.663,2.538,0.917l-0.479-0.173
			c0.861,0.335,0.249,0.316,3.078,0.724c5.723,0.826,9.543-2.542,14.405-5.071c2.917-1.508,12.653-8.014,12.653-8.014l-2.818-5.73
			c0,0-3.65,0.937-4.414,1.447c2.391-1.8,6.198-5.224,6.198-5.224l-3.061-5.642c0,0-3.733,1.241-5.94,2.652
			c2.491-2.04,5.688-6.547,5.688-6.547l-4.06-3.582c0,0-4.281,2.164-6.449,3.801c0.891-0.994,4.185-5.22,4.185-5.22l-3.873-3.809
			c0,0-7.914,7.306-13.246,12.188l-3.344,2.63c-0.356,0.153-0.733,0.305-1.11,0.448c0.362-2.493,0.032-8.137,0.032-8.137
			l-7.843,3.656c0,0-0.749,6.192-0.812,8.199C283.786,155.974,283.796,157.981,283.95,159.662z"/>
		<path class="st12" d="M277.233,165.432c2.171,5.433,6.645,11.579,12.19,16.482c1.825-2.64,5.004-4.955,8.256-6.575
			c-1.05-0.132-2.079-0.367-3.078-0.724l0.479,0.173c-0.938-0.254-1.784-0.55-2.538-0.917c-0.214-0.082-0.418-0.183-0.621-0.296
			c-3.639-1.844-6.524-5.28-7.533-10.987c-0.01-0.021-0.01-0.05-0.01-0.072c-0.204-0.866-0.346-1.794-0.428-2.854
			c-0.765,1.121-1.58,2.181-2.548,3.15C280.281,163.923,278.834,164.769,277.233,165.432z"/>
		<g>
			<g>
				<g>
					<path class="st13" d="M305.6,144.528c0.013-0.023,0.288,0.109,0.775,0.367c0.493,0.249,1.176,0.665,2.005,1.204
						c1.628,1.102,3.809,2.853,5.524,5.374c1.716,2.516,2.561,5.179,2.986,7.1c0.207,0.967,0.341,1.755,0.397,2.305
						c0.064,0.548,0.087,0.853,0.061,0.856c-0.069,0.011-0.24-1.198-0.72-3.097c-0.489-1.889-1.36-4.485-3.039-6.948
						c-1.678-2.468-3.788-4.219-5.362-5.368C306.629,145.185,305.565,144.59,305.6,144.528z"/>
				</g>
			</g>
		</g>
		<g>
			<g>
				<g>
					<path class="st14" d="M273.974,206.551c0.114-0.085,0.276-0.054,0.361,0.07c0.085,0.124,0.056,0.286-0.064,0.362
						s-0.282,0.044-0.361-0.07C273.831,206.798,273.86,206.636,273.974,206.551z"/>
				</g>
				<g>
					<path class="st14" d="M272.507,205.009c0.091-0.11,0.344-0.031,0.565,0.176c0.221,0.207,0.316,0.454,0.212,0.551
						c-0.104,0.097-0.357,0.019-0.565-0.175C272.511,205.365,272.416,205.118,272.507,205.009z"/>
				</g>
				<g>
					<path class="st14" d="M270.763,203.782c0.072-0.123,0.335-0.091,0.589,0.072c0.253,0.163,0.391,0.39,0.309,0.506
						s-0.346,0.084-0.589-0.072C270.829,204.131,270.691,203.905,270.763,203.782z"/>
				</g>
				<g>
					<path class="st14" d="M268.865,202.81c0.057-0.13,0.322-0.133,0.592-0.004c0.27,0.128,0.435,0.335,0.37,0.461
						c-0.065,0.126-0.33,0.128-0.592,0.004C268.973,203.147,268.808,202.941,268.865,202.81z"/>
				</g>
				<g>
					<path class="st14" d="M266.873,202.039c0.045-0.135,0.309-0.162,0.59-0.061c0.281,0.101,0.467,0.291,0.415,0.424
						c-0.052,0.133-0.316,0.16-0.59,0.061C267.014,202.364,266.828,202.175,266.873,202.039z"/>
				</g>
				<g>
					<path class="st14" d="M264.824,201.433c0.035-0.138,0.296-0.186,0.584-0.106c0.287,0.079,0.487,0.254,0.446,0.391
						c-0.041,0.136-0.302,0.184-0.584,0.106C264.988,201.746,264.789,201.571,264.824,201.433z"/>
				</g>
				<g>
					<path class="st14" d="M262.738,200.966c0.026-0.14,0.284-0.204,0.576-0.144c0.291,0.06,0.502,0.222,0.471,0.361
						c-0.031,0.139-0.289,0.203-0.576,0.144C262.922,201.267,262.711,201.106,262.738,200.966z"/>
				</g>
				<g>
					<path class="st14" d="M260.628,200.622c0.019-0.141,0.272-0.22,0.567-0.176c0.294,0.044,0.514,0.193,0.491,0.333
						s-0.277,0.219-0.566,0.177C260.829,200.913,260.609,200.763,260.628,200.622z"/>
				</g>
				<g>
					<path class="st14" d="M258.502,200.393c0.011-0.142,0.26-0.234,0.557-0.206c0.296,0.028,0.524,0.165,0.508,0.307
						c-0.016,0.141-0.265,0.234-0.556,0.206C258.718,200.673,258.491,200.535,258.502,200.393z"/>
				</g>
				<g>
					<path class="st14" d="M256.367,200.277c0.004-0.142,0.248-0.248,0.545-0.235c0.297,0.012,0.532,0.138,0.524,0.28
						c-0.008,0.142-0.252,0.248-0.545,0.235C256.597,200.544,256.363,200.419,256.367,200.277z"/>
				</g>
				<g>
					<path class="st14" d="M254.228,200.275c-0.004-0.142,0.233-0.261,0.531-0.265c0.298-0.004,0.539,0.108,0.538,0.251
						s-0.238,0.261-0.531,0.265C254.473,200.53,254.232,200.418,254.228,200.275z"/>
				</g>
				<g>
					<path class="st14" d="M252.093,200.403c-0.014-0.142,0.216-0.275,0.514-0.297c0.297-0.023,0.545,0.075,0.553,0.217
						c0.008,0.142-0.222,0.275-0.514,0.297C252.354,200.641,252.107,200.544,252.093,200.403z"/>
				</g>
				<g>
					<path class="st14" d="M249.97,200.671c-0.021-0.141,0.2-0.289,0.494-0.33c0.294-0.041,0.547,0.039,0.566,0.181
						c0.018,0.141-0.203,0.289-0.494,0.33C250.245,200.893,249.991,200.812,249.97,200.671z"/>
				</g>
				<g>
					<path class="st14" d="M247.859,201.027c-0.027-0.14,0.189-0.296,0.482-0.348c0.292-0.052,0.549,0.02,0.572,0.16
						c0.023,0.14-0.192,0.296-0.482,0.348C248.141,201.239,247.885,201.167,247.859,201.027z"/>
				</g>
				<g>
					<path class="st14" d="M245.764,201.467c-0.033-0.139,0.176-0.303,0.467-0.367c0.29-0.064,0.549-0.003,0.578,0.136
						c0.029,0.139-0.18,0.304-0.467,0.367C246.056,201.667,245.797,201.606,245.764,201.467z"/>
				</g>
				<g>
					<path class="st14" d="M243.693,202.002c-0.039-0.137,0.162-0.311,0.449-0.389c0.287-0.078,0.548-0.029,0.584,0.109
						s-0.166,0.312-0.449,0.389C243.993,202.187,243.732,202.138,243.693,202.002z"/>
				</g>
				<g>
					<path class="st14" d="M241.652,202.644c-0.047-0.134,0.144-0.319,0.427-0.412c0.283-0.093,0.546-0.059,0.589,0.077
						s-0.149,0.321-0.427,0.412C241.963,202.813,241.699,202.778,241.652,202.644z"/>
				</g>
				<g>
					<path class="st14" d="M239.654,203.405c-0.055-0.131,0.124-0.327,0.401-0.438c0.277-0.11,0.542-0.092,0.592,0.041
						c0.05,0.133-0.129,0.329-0.401,0.438C239.975,203.555,239.71,203.536,239.654,203.405z"/>
				</g>
				<g>
					<path class="st14" d="M237.714,204.298c-0.065-0.127,0.101-0.335,0.37-0.464c0.268-0.129,0.534-0.129,0.593,0
						c0.059,0.13-0.106,0.337-0.369,0.464C238.044,204.425,237.779,204.425,237.714,204.298z"/>
				</g>
				<g>
					<path class="st14" d="M235.847,205.331c-0.074-0.121,0.074-0.341,0.332-0.49c0.258-0.149,0.522-0.169,0.591-0.044
						c0.068,0.125-0.08,0.344-0.332,0.49C236.186,205.433,235.921,205.453,235.847,205.331z"/>
				</g>
				<g>
					<path class="st14" d="M234.074,206.51c-0.084-0.115,0.045-0.346,0.29-0.515c0.244-0.17,0.506-0.211,0.584-0.092
						c0.078,0.119-0.051,0.35-0.29,0.515C234.419,206.584,234.158,206.625,234.074,206.51z"/>
				</g>
				<g>
					<path class="st14" d="M232.403,207.841c-0.094-0.107,0.016-0.349,0.245-0.54c0.229-0.191,0.487-0.256,0.575-0.144
						c0.088,0.112-0.022,0.354-0.245,0.54C232.755,207.884,232.497,207.948,232.403,207.841z"/>
				</g>
				<g>
					<path class="st14" d="M230.858,209.316c-0.103-0.098-0.016-0.349,0.196-0.56c0.211-0.211,0.462-0.298,0.56-0.195
						c0.098,0.103,0.01,0.354-0.196,0.56C231.212,209.327,230.961,209.414,230.858,209.316z"/>
				</g>
				<g>
					<path class="st14" d="M229.451,210.923c-0.111-0.089-0.047-0.346,0.145-0.575c0.192-0.229,0.434-0.338,0.54-0.244
						s0.042,0.352-0.145,0.575C229.804,210.902,229.562,211.011,229.451,210.923z"/>
				</g>
				<g>
					<path class="st14" d="M228.188,212.645c-0.118-0.079-0.076-0.341,0.096-0.585c0.171-0.244,0.403-0.374,0.518-0.289
						c0.114,0.085,0.072,0.347-0.096,0.585C228.538,212.595,228.306,212.724,228.188,212.645z"/>
				</g>
				<g>
					<path class="st14" d="M227.069,214.465c-0.124-0.069-0.103-0.334,0.049-0.591c0.151-0.257,0.372-0.405,0.493-0.33
						c0.121,0.075,0.099,0.34-0.049,0.591C227.414,214.387,227.193,214.534,227.069,214.465z"/>
				</g>
				<g>
					<path class="st14" d="M226.091,216.36c-0.129-0.06-0.127-0.325,0.004-0.591c0.131-0.266,0.34-0.429,0.467-0.363
						c0.126,0.066,0.124,0.331-0.004,0.591C226.429,216.258,226.22,216.42,226.091,216.36z"/>
				</g>
				<g>
					<path class="st14" d="M225.243,218.316c-0.132-0.052-0.148-0.317-0.034-0.591c0.114-0.274,0.312-0.451,0.442-0.394
						s0.146,0.322,0.034,0.591C225.574,218.192,225.376,218.368,225.243,218.316z"/>
				</g>
				<g>
					<path class="st14" d="M224.513,220.322c-0.135-0.045-0.166-0.308-0.068-0.589c0.098-0.281,0.285-0.468,0.419-0.42
						c0.134,0.049,0.164,0.313,0.068,0.589C224.836,220.179,224.648,220.366,224.513,220.322z"/>
				</g>
				<g>
					<path class="st14" d="M223.89,222.366c-0.137-0.038-0.181-0.3-0.098-0.585c0.083-0.285,0.261-0.483,0.397-0.441
						c0.136,0.042,0.18,0.304,0.098,0.585C224.205,222.207,224.027,222.404,223.89,222.366z"/>
				</g>
				<g>
					<path class="st14" d="M223.474,223.97c-0.138-0.033-0.222-0.176-0.187-0.318c0.035-0.142,0.176-0.23,0.314-0.195
						s0.222,0.178,0.187,0.318C223.753,223.916,223.612,224.004,223.474,223.97z"/>
				</g>
			</g>
		</g>
	</g>
	<polygon class="st3" points="176.427,217.919 193.362,233.648 207.17,206.633 	"/>
	<polygon class="st15" points="174.693,209.304 191.628,225.033 205.436,198.018 	"/>
	<polygon class="st7" points="159.322,219.437 176.257,235.166 190.065,208.151 	"/>
	<polygon class="st15" points="159.322,211.633 176.257,227.362 190.065,200.346 	"/>
	<polygon class="st7" points="169.091,219.978 152.156,235.707 138.348,208.691 	"/>
	<polygon class="st15" points="172.243,211.633 155.308,227.362 141.5,200.346 	"/>
	<polygon class="st3" points="149.158,219.437 132.223,235.166 118.415,208.151 	"/>
	<polygon class="st15" points="151.229,210.115 134.294,225.844 120.486,198.828 	"/>
	<path class="st11" d="M227.027,159.132c9.631,35.315-29.49,66.278-63.966,66.278s-72.674-31.138-62.425-66.278
		c10.79-36.993,27.949-66.278,62.425-66.278S217.779,125.222,227.027,159.132z"/>
	<path class="st12" d="M227.027,159.132c-9.248-33.91-29.49-66.278-63.966-66.278c-1.806,0-3.553,0.098-5.266,0.256
		c31.439,2.973,50.172,33.791,58.963,66.022c9.155,33.568-25.736,63.183-58.82,66.033c1.712,0.148,3.423,0.245,5.123,0.245
		C197.537,225.41,236.658,194.447,227.027,159.132z"/>
	<path d="M195.986,197.271c19.274-2.709,26.104-22.581,26.104-22.581c-6.16,8.615-18.163,7.194-24.447-0.848
		c-6.28-8.05-16.272-10.548-16.272-10.548c3.157-0.19,9.561,1.837,9.561,1.837c-13.093-11.154-23.261-1.756-26.603,2.152
		c-3.142-4.068-12.82-13.972-26.456-3.496c0,0,6.496-1.7,9.633-1.355c0,0-10.101,1.994-16.787,9.712
		c-6.676,7.717-18.736,8.531-24.453-0.383c0,0,5.817,20.185,24.929,23.872c0,0-9.623,0.823-16.422-4.684
		c0,0,20.337,18.653,38.751,7.916c5.135-2.997,8.329-6.657,10.265-10.381c1.754,3.816,4.757,7.631,9.735,10.888
		c17.844,11.656,39.096-5.947,39.096-5.947C205.554,198.583,195.986,197.271,195.986,197.271z"/>
	
		<radialGradient id="SVGID_1_" cx="377.3756" cy="168.3614" r="41.3472" gradientTransform="matrix(-0.9895 0.1447 0.1447 0.9895 529.6093 -110.3559)" gradientUnits="userSpaceOnUse">
		<stop  offset="0" style="stop-color:#231F20"/>
		<stop  offset="0.9949" style="stop-color:#000000"/>
	</radialGradient>
	<path class="st16" d="M173.43,125.791c0,0-5.689-7.062-5.827-13.66c0,0,2.854,5.372,4.653,6.351l-3.396-11.914l5.706,10.749
		c0,0-1.628-7.965,4.323-8.456c5.953-0.491,11.777,4.156,11.777,4.156s-5.004-1.874-8.067-0.184c0,0,13.718,0.477,18.528,19.216
		C201.127,132.05,189.569,125.119,173.43,125.791z"/>
	<g>
		<path d="M199.832,146.627c0,0-0.392,0.144-1.114,0.415c-0.37,0.171-0.835,0.153-1.381,0.255c-0.283,0.045-0.559,0.044-0.861,0.056
			c-0.37,0.016-0.764,0.033-1.176,0.047c-0.254,0.01-0.512,0.019-0.781,0.031l-0.204,0.01c-0.081,0.013-0.142,0.008-0.127-0.082
			l-0.053-0.396c-0.061-0.517-0.123-1.057-0.188-1.617c-0.073-0.776-0.212-1.598-0.363-2.469c-0.334-1.723-0.828-3.63-1.689-5.471
			c-0.844-1.825-2.177-3.602-3.956-4.423c-1.767-0.832-3.924-0.413-5.648,1.036c-1.725,1.434-3.019,3.592-3.873,5.904
			c-0.864,2.322-1.374,4.814-1.662,7.284c0,0-0.037-0.415-0.112-1.174c-0.073-0.762-0.133-1.882-0.049-3.288
			c0.077-1.406,0.274-3.118,0.882-4.984c0.614-1.842,1.603-3.912,3.446-5.612c0.92-0.839,2.074-1.573,3.446-1.927
			c1.361-0.364,2.922-0.292,4.301,0.259c2.802,1.122,4.586,3.69,5.506,6.206c0.979,2.554,1.279,5.227,1.226,7.771l-0.043,0.947
			l-0.068,0.596c0,0.091-0.047,0.242-0.001,0.301l0.262,0.058l0.69,0.135C197.433,146.759,198.577,146.814,199.832,146.627z"/>
	</g>
	
		<radialGradient id="SVGID_2_" cx="365.764" cy="170.0594" r="41.3472" gradientTransform="matrix(0.9895 0.1447 -0.1447 0.9895 -193.8105 -110.3559)" gradientUnits="userSpaceOnUse">
		<stop  offset="0" style="stop-color:#231F20"/>
		<stop  offset="0.9949" style="stop-color:#000000"/>
	</radialGradient>
	<path class="st17" d="M150.634,125.791c0,0,5.689-7.062,5.827-13.66c0,0-2.854,5.372-4.653,6.351l3.396-11.914l-5.706,10.749
		c0,0,1.628-7.965-4.323-8.456c-5.953-0.491-11.777,4.156-11.777,4.156s5.004-1.874,8.067-0.184c0,0-13.718,0.477-18.528,19.216
		C122.936,132.05,134.494,125.119,150.634,125.791z"/>
	<g>
		<path d="M124.232,146.627c0,0,0.392,0.144,1.114,0.415c0.37,0.171,0.835,0.153,1.381,0.255c0.283,0.045,0.559,0.044,0.861,0.056
			c0.37,0.016,0.764,0.033,1.176,0.047c0.254,0.01,0.512,0.019,0.781,0.031l0.204,0.01c0.081,0.013,0.142,0.008,0.127-0.082
			l0.053-0.396c0.061-0.517,0.123-1.057,0.188-1.617c0.073-0.776,0.212-1.598,0.363-2.469c0.334-1.723,0.828-3.63,1.689-5.471
			c0.844-1.825,2.177-3.602,3.956-4.423c1.767-0.832,3.924-0.413,5.648,1.036c1.725,1.434,3.019,3.592,3.873,5.904
			c0.864,2.322,1.374,4.814,1.662,7.284c0,0,0.037-0.415,0.112-1.174c0.073-0.762,0.133-1.882,0.049-3.288
			c-0.077-1.406-0.274-3.118-0.882-4.984c-0.614-1.842-1.603-3.912-3.446-5.612c-0.92-0.839-2.074-1.573-3.446-1.927
			c-1.361-0.364-2.922-0.292-4.301,0.259c-2.802,1.122-4.586,3.69-5.506,6.206c-0.979,2.554-1.279,5.227-1.226,7.771l0.043,0.947
			l0.068,0.596c0,0.091,0.047,0.242,0.001,0.301l-0.262,0.058l-0.69,0.135C126.63,146.759,125.486,146.814,124.232,146.627z"/>
	</g>
	<path class="st12" d="M154.669,155.084c0,0-1.098,0.686-0.595,1.624c0.503,0.938,2.884,3.613,10.615,3.042
		c6.634-0.983,5.581-1.784,7.846-2.104c2.265-0.32,4.392,0.869,3.134,3.775c-1.258,2.905-7.123,5.195-10.676,4.851
		c-3.553-0.344-10.347-1.373-11.582-4.53l-1.098-2.516l0.435-2.837L154.669,155.084z"/>
	<g>
		<g>
			<path class="st18" d="M163.381,144.381c0,0-0.057,0.161-0.177,0.454c-0.132,0.287-0.326,0.716-0.652,1.213
				c-0.639,1-1.691,2.349-3.098,3.804c-1.394,1.458-3.098,3.104-4.666,4.991c-0.771,0.941-1.497,1.988-1.868,3.096
				c-0.177,0.553-0.244,1.11-0.136,1.644c0.046,0.258,0.144,0.53,0.26,0.757c0.157,0.324,0.305,0.542,0.466,0.773
				c0.71,0.974,1.724,1.77,2.813,2.395c1.093,0.621,2.257,1.11,3.424,1.465c2.335,0.699,4.645,0.994,6.617,0.895
				c1.968-0.091,3.601-0.444,4.69-0.86c1.093-0.402,1.683-0.736,1.683-0.736s-0.14,0.097-0.396,0.278
				c-0.256,0.18-0.648,0.439-1.184,0.703c-1.056,0.524-2.681,1.163-4.735,1.382c-2.042,0.225-4.488,0.159-7.001-0.507
				c-1.254-0.346-2.537-0.792-3.746-1.479c-1.201-0.676-2.376-1.543-3.263-2.737c-0.223-0.324-0.433-0.675-0.565-0.955
				c-0.182-0.378-0.305-0.738-0.376-1.137c-0.144-0.79-0.033-1.594,0.206-2.289c0.491-1.409,1.366-2.486,2.203-3.457
				c1.729-1.93,3.572-3.397,5.041-4.769c1.485-1.343,2.702-2.483,3.42-3.408C163.084,144.996,163.381,144.381,163.381,144.381z"/>
		</g>
	</g>
</g>
<g>
</g>
<g>
</g>
<g>
</g>
<g>
</g>
<g>
</g>
<g>
</g>
</svg>
